<svg xmlns="http://www.w3.org/2000/svg" width="148" height="56" viewBox="0 0 148 56">
    <path fill="#FFF" fill-rule="evenodd" d="M21.273 42.806c.118.001.3.115.34.222.109.296.182.611.224.925.035.262.007.532.007.8h.02c-.043.995-.096 1.99-.127 2.986-.017.571.01 1.144 0 1.715-.014.737-.04 1.474-.076 2.21a.709.709 0 0 1-.138.385.436.436 0 0 1-.508.147c-.204-.079-.285-.264-.288-.473-.003-.196.02-.392.022-.588.004-.51-.003-1.019.002-1.528.014-1.514.02-3.028.054-4.542.013-.615.092-1.229.144-1.844.004-.054.007-.12.04-.157.086-.1.189-.258.284-.258zm1.714.726c.172-.01.268.104.286.255.028.232.032.469.037.704.006.235.001.47.001.706h-.03c.033 1.066.073 2.13.1 3.196.023.956.039 1.912.04 2.868 0 .213-.058.43-.12.637-.02.065-.14.143-.208.137-.066-.005-.157-.103-.176-.176a2.73 2.73 0 0 1-.101-.622c-.025-1.301-.035-2.603-.053-3.905-.015-1.083-.035-2.166-.052-3.249-.002-.086-.004-.173 0-.259.01-.174.101-.281.276-.292zm3.72-.865c.072-.013.186.083.247.159a.453.453 0 0 1 .085.261c.02 1.191.04 2.382.046 3.574.002.58-.026 1.159-.043 1.738-.013.485-.041.97-.04 1.455 0 .477.032.953.043 1.43a.94.94 0 0 1-.047.369c-.056.137-.117.306-.325.282-.198-.023-.375-.097-.434-.302a1.913 1.913 0 0 1-.073-.508c-.007-.854-.003-1.708-.003-2.562h.019c.02-1.529.03-3.058.07-4.587.01-.368.116-.737.207-1.098.022-.09.152-.193.247-.21zm-1.988.054c.167-.006.265.098.29.251.032.186.05.374.055.562.022.933.033 1.866.058 2.799.025.962.05 1.925.1 2.886.022.442.134.88.148 1.322.012.37-.038.746-.11 1.11-.023.11-.208.256-.324.262-.12.006-.287-.113-.363-.225-.081-.12-.107-.295-.11-.447-.022-1.435-.034-2.87-.05-4.304v-.165a367.346 367.346 0 0 1-.006-3.342c0-.148.017-.297.034-.445.018-.163.114-.259.278-.264zm3.802-.479c.077.012.19.105.202.178.046.269.058.543.082.815l-.05.004c.069.873.143 1.745.205 2.618.02.273.005.549.009.824.014 1.153.04 2.306.04 3.46 0 .428-.047.858-.086 1.286-.023.257-.206.417-.432.406-.22-.011-.326-.158-.321-.457.014-.989.039-1.977.043-2.965.007-1.772-.002-3.545.007-5.317.001-.231.056-.465.112-.69.018-.07.133-.17.189-.162zm6.015.549c.069.08.175.15.2.243.054.21.079.428.099.645.052.56.117 1.119.136 1.68.024.69.006 1.382.006 2.073.001.667.013 1.335-.003 2.002-.012.5-.06 1-.094 1.499-.003.039-.016.077-.024.115-.034.16-.085.33-.282.314-.19-.017-.206-.194-.203-.346.024-1.065.065-2.13.076-3.195.01-.815-.014-1.63-.03-2.446-.014-.773-.043-1.546-.05-2.32 0-.087.11-.176.169-.264zm-1.337-.33c.083.016.198.091.22.165.096.335.212.674.234 1.018.058.921.098 1.845.094 2.768-.004.758-.084 1.515-.125 2.272-.023.415-.011.832-.06 1.243-.037.311-.127.62-.232.917-.034.098-.188.154-.287.23-.072-.106-.199-.207-.207-.317-.025-.334-.006-.672 0-1.01.001-.077.02-.154.025-.232l.137-2.317.002-.047.047-2.133v-.188h-.051c0-.611-.002-1.222.002-1.833 0-.116.01-.238.047-.347.025-.076.114-.196.154-.189zm-1.28-1.145c.042-.01.155.104.168.174.068.382.115.767.142.96-.044.941-.085 1.683-.109 2.426-.008.273.053.549.036.82-.032.53-.096 1.056-.15 1.583-.023.232-.07.463-.076.696-.023.908-.033 1.817-.048 2.725-.001.047.014.104-.006.14-.04.069-.09.155-.156.18-.046.017-.16-.042-.185-.094-.089-.188-.2-.384-.217-.584a13.055 13.055 0 0 1-.046-1.503c.02-.655.09-1.309.125-1.963.03-.57.036-1.143.066-1.714.034-.63.086-1.26.123-1.892.024-.407.03-.814.055-1.221.01-.186.028-.376.077-.554.021-.076.122-.16.201-.179zm-1.616.654l.08.004c.192.026.187.201.19.352 0 .054-.008.11-.01.13 0 .92.017 1.805-.005 2.69-.024 1.024-.09 2.047-.123 3.07-.019.557-.003 1.115-.012 1.672a2.539 2.539 0 0 1-.065.556c-.02.081-.12.143-.185.213-.056-.064-.147-.123-.16-.196a5.735 5.735 0 0 1-.106-.808 49.476 49.476 0 0 1-.046-1.856c-.002-.368.04-.736.038-1.104-.003-.564-.044-1.128-.036-1.692.012-.775.052-1.55.086-2.325.007-.14.043-.278.07-.417.038-.2.168-.312.364-.285zm85.725.77c.173-.008.238.133.176.273-.078.178-.201.336-.305.5.125.067.138.225-.027.425-.284.345-.562.701-.89 1.001-.187.173-.464.252-.707.36-.117.051-.248.07-.393.11-.093-.108-.204-.224-.3-.352-.11-.146-.063-.34.09-.397.232-.087.466-.166.726-.258l-.469-.507c.118-.292.289-.43.553-.525.35-.127.659-.364 1-.521a1.5 1.5 0 0 1 .546-.109zm-24.753-1.058l.092.006c.103.009.205.035.306.068l.302.101c.05.016.096.05.14.081.065.048.127.102.19.153l.05-.047c.02.084.047.167.057.253.01.085.004.173.005.261.251.12.345.31.197.427-.085.067-.203.097-.31.131-.204.063-.41.117-.614.174l.003.104c.164.044.327.113.494.126.19.015.394.07.353.261-.029.136-.24.247-.39.335-.073.043-.194.02-.29.004a12.033 12.033 0 0 1-.83-.158c-.404-.095-.424-.14-.446-.562a1.183 1.183 0 0 0-.1-.375c-.083-.204.057-.337.185-.369.178-.045.38.008.572.014.046.001.093-.016.14-.025-.028-.06-.042-.14-.088-.173-.046-.032-.132 0-.188-.026-.107-.047-.272-.098-.293-.178-.04-.155-.059-.405.03-.482.117-.103.348-.114.525-.098zm24.854-.356c.204-.045.324.076.384.26.054.17-.058.234-.183.308-.087.05-.141.153-.22.22-.233.2-.466.398-.709.584-.076.059-.185.075-.278.114-.155.065-.31.132-.526.225-.141-.135-.315-.254-.41-.42-.034-.057.097-.262.198-.34.433-.334.868-.668 1.417-.801.114-.028.213-.124.327-.15zM64.855 31.75l.064.003c.274.048.55.097.818.17.1.026.182.121.275.18.042.026.093.04.14.056.175.057.35.11.523.172.045.016.079.058.12.085l.243.16c-.104.098-.196.213-.314.287-.084.052-.202.05-.304.072.122.608-.017.731-.857.775l-.037.063c.16.09.313.211.485.26.206.058.187.155.1.282-.19.276-.493.33-.782.155-.048-.028-.105-.04-.191-.074l.135-.16.14-.158-.057-.075-.511.393c.212.127.433.247.642.387.175.117.24.31.181.502-.03.1-.163.237-.249.237-.313-.001-.627-.054-1.018-.095l.506.344c.194.133.396.257.575.408.048.04.064.198.026.243-.077.09-.196.182-.307.196-.109.014-.23-.068-.393-.08.05.065.088.152.154.19.2.12.244.244.071.377-.216.167-.463.294-.713.448.051.166.13.356.163.554.013.086-.077.27-.11.267-.125-.009-.248-.07-.367-.124a.516.516 0 0 1-.067-.036l-.127-.089-.07.04c.085.27.15.55.262.81.09.21.078.332-.14.438-.068.033-.1.164-.126.256-.028.097-.018.285-.046.29-.14.021-.302.03-.427-.024-.123-.053-.212-.187-.315-.286l-.068.022c.02.187.03.376.061.562.039.23.135.46.129.686-.005.153-.145.301-.218.439l-.456-.136c.109.18.213.307.264.453a.479.479 0 0 1-.017.345c-.023.044-.2.026-.3.006-.117-.023-.227-.08-.384-.137.002.155-.008.283.006.407.037.31-.189.47-.44.453-.097-.006-.217-.195-.263-.324a1.337 1.337 0 0 1-.053-.194l-.065-.405c-.005-.023-.021-.043-.031-.064.205-.226.227-.432.078-.69-.213-.367-.2-.72.047-.922.13-.105.276-.118.41.013.147.145.297.287.468.453 0-.068.022-.169-.006-.254-.094-.287-.208-.566-.306-.852-.02-.058.008-.13 0-.194-.014-.105-.027-.212-.06-.31-.052-.151.141-.497.308-.532.478-.1.7-.472.575-.965a.752.752 0 0 1 .477-.878c-.204-.386-.22-.838.31-.928-.282-.417-.228-.762.127-.817.01-.013.027-.027.027-.04 0-.19-.052-.39.232-.454.183-.04.343-.124.538-.02.102.053.239.039.36.056.015-.032.03-.064.047-.095-.146-.129-.29-.261-.438-.386-.05-.041-.114-.066-.172-.095-.161-.08-.337-.176-.287-.382.054-.225.23-.335.515-.288-.001-.124-.005-.235-.003-.345v-.054c-.006-.165-.037-.345.233-.354a.068.068 0 0 0 .033-.012l.066-.051c-.183-.241-.167-.49.034-.582a.343.343 0 0 1 .19-.031zm-5.906 3.388c.084-.024.246.033.294.105.167.253.36.515.429.801.055.228.099.457.158.687.051.199.239.205.294.352.029.077.096.152.093.225-.018.352-.07.702-.08 1.054-.012.43.005.86.01 1.287.026-.017.082-.047.134-.083.269-.18.555-.053.552.275-.002.26.08.533-.123.787-.087.11-.046.327-.051.496-.01.308-.402.605-.624.455-.21-.142-.209-.379-.177-.6.03-.21.098-.416.132-.626.012-.081-.026-.17-.043-.265-.103.015-.208.061-.29.036-.096-.03-.23-.11-.247-.19a6.982 6.982 0 0 1-.161-1.1c-.013-.286.08-.575.074-.861-.005-.2-.092-.398-.155-.593-.01-.028-.091-.047-.138-.043-.348.028-.564-.167-.453-.503.11-.335-.044-.63-.022-.946.013-.183.218-.698.394-.75zm32.476 5.14c.251-.004.502.047.753.043.513-.009.864.331 1.264.565.162.095.116.316-.103.38-.357.102-.726.163-1.09.241l-.007-.032c-.066 0-.15-.025-.195.007-.256.183-.482-.012-.715-.053-.132-.024-.203-.403-.14-.565a.328.328 0 0 0 .008-.2c-.044-.143.073-.385.225-.387zm26.862-13.228c.258-.033.463.085.585.369l-.443.426c.083.068.158.13.177.144.208-.062.38-.165.532-.14.087.014.14.236.21.368.354-.357.462.222.72.237l-.092.415.08.035c.075-.135.188-.263.217-.408.062-.321.238-.487.602-.48-.005.099-.033.205-.007.295.018.06.114.095.195.156l-.077.195.07.034c.098-.19.199-.377.29-.57.092-.194.253-.152.404-.118.03.007.042.099.062.151l-.068.058c.08.064.157.133.244.188.032.02.098.025.128.005.19-.124.503-.125.605.046.055.09.006.246 0 .372-.003.061-.015.122.007.19.347-.302.296-.972.972-.943.067.421.153.848-.2 1.205-.089.173-.15.37-.275.51-.13.146-.23.452-.454.356-.18-.077-.284-.336-.414-.505-.142.173-.31.388-.492.59-.044.05-.173.097-.2.073a.492.492 0 0 1-.153-.254c-.027-.128-.01-.266-.011-.482-.127.144-.197.239-.283.316-.067.06-.174.156-.226.136-.093-.036-.172-.137-.23-.228-.046-.071-.051-.169-.07-.237l-.818.724.013.017.032.04-.34.705.102.078c.08-.064.181-.114.237-.195.08-.117.143-.252.184-.388.1-.327.157-.375.516-.378.032 0 .064-.03.095-.047-.004.412-.288.804-1.409 1.928l-.18-.439c-.129.167-.316.168-.485.02-.195-.172-.334-.075-.503.061.194.167.274.337.126.586a.391.391 0 0 1-.294.211.933.933 0 0 0-.383.214c-.1.088.045.31.207.325a.292.292 0 0 0 .099-.007c.132-.035.32-.125.356.058a.67.67 0 0 1-.122.503c-.182.214-.43.371-.65.552l.007.056c.081-.016.161-.043.243-.046.102-.004.247-.026.296.03.06.067.083.23.042.31-.132.262-.301.506-.47.778.135.111.243.284.082.496-.03.04-.064.079-.1.116l-.218.218c-.016.017-.026.04-.052.08.147.016.373.01.264.221-.152.297-.369.56-.576.864l.258.04c.257.278-.09.49-.08.748.013.31-.393.305-.492.588.084.015.155.019.22.04.095.031.239.052.265.117.064.159.112.355-.073.48-.163.111-.348.191-.512.301-.074.05-.121.14-.21.248.152-.013.248-.032.342-.027.265.015.404.271.227.463a4.142 4.142 0 0 1-.683.563c-.229.16-.478.29-.723.425-.192.106-.385.216-.59.29-.23.082-.577-.29-.47-.518.075-.162.238-.289.378-.413.09-.08.21-.125.323-.19-.22-.104-.39-.257-.428-.487-.016-.095.06-.243.141-.307.112-.088.268-.12.458-.199l-.415-.362c.355-.21.415-.597.57-.922.032-.067-.073-.2-.13-.344l.615-.193c.131-.041.354.001.311-.219-.016-.085-.21-.136-.34-.177-.124-.222-.515-.357-.366-.659.448-.179.845-.325 1.228-.502.08-.037.104-.192.154-.293-.093-.015-.2-.066-.276-.037-.208.078-.397.203-.604.285a1.265 1.265 0 0 1-.506.083l.047-.02.133-.056c-.203-.102-.105-.357-.308-.449-.027-.012-.033-.175.002-.202.124-.095.262-.185.41-.23.18-.055.266-.123.213-.246.416.121 1.121-.198 1.26-.574-.174.072-.347.137-.516.214-.26.118-.721.027-.9-.182-.02-.025-.049-.044-.074-.065-.177-.143-.167-.26.038-.36.077-.04.164-.062.249-.093l-.313-.447.576-.354-.142-.553c-.033.061-.07.097-.064.124.047.24-.099.174-.208.126-.202-.088-.274-.035-.296.185-.03.297-.003.614-.234.86-.13.138-.305.148-.434.01-.055-.058-.105-.123-.16-.189-.096.283-.145.576-.289.811-.161.267-.493.187-.598-.11-.016-.046-.043-.088-.125-.12-.01.175.002.356-.036.525-.054.245-.115.497-.229.717-.157.305-.339.31-.576.049l-.064.286c-.068.324-.286.478-.61.42-.162-.029-.21.061-.257.192-.082.224-.217.397-.505.37-.035.16-.038.334-.113.468-.07.128-.206.278-.333.299-.128.02-.357.047-.41-.195-.004-.023-.043-.038-.087-.075-.186.331-.17.751-.548.975-.093-.049-.2-.081-.224.134-.017.154-.058.344-.16.439a.77.77 0 0 1-.493.202c-.222-.006-.44-.122-.663-.17-.03-.006-.097.104-.13.17-.042.08-.067.169-.099.254-.087-.036-.194-.053-.26-.113-.344-.313-.357-.808-.02-1.063.194-.146.353-.053.556.052.013-.094.032-.175.034-.257.011-.36.192-.598.536-.74.067-.027.113-.132.147-.21.12-.279.244-.306.485-.108.018.015.115-.025.128-.058.074-.19.1-.408.21-.573.078-.118.266-.238.395-.227.125.01.266.163.23.365a1.717 1.717 0 0 0-.018.141l-.02.287.072.012c.056-.24.126-.478.162-.72.036-.231.27-.448.518-.488.268-.044.25-.289.263-.483.021-.294.075-.56.379-.686.073-.03.16-.03.215-.038.08-.198.139-.435.267-.624.075-.11.261-.144.382-.204l.1.315.058-.009c.029-.169.06-.337.086-.507.022-.15.007-.3.208-.37.194-.066.26.078.37.161.04.031.075.07.124.115.049-.227.11-.422.128-.622.022-.23.201-.288.36-.335.043-.012.15.166.214.266.053.08.087.173.194.272.017-.134.052-.269.045-.401-.007-.13-.052-.258-.09-.384-.065-.214.002-.4.186-.485.112-.05.275.016.401.029-.032-.167-.08-.396-.12-.626-.023-.134.023-.2.178-.182.145.017.293.001.42 0 .068.476.14.95.203 1.427.023.165.079.31.265.294.197-.018.236-.169.216-.352-.06-.528-.11-1.057-.162-1.586-.026-.26-.19-.376-.473-.334-.176.026-.361.084-.528.053-.16-.03-.211.057-.22.143-.025.25-.23.264-.39.323-.147.054-.368-.237-.307-.433.078-.253.198-.492.306-.752-.086-.079-.22-.065-.193.071.028.149-.048.18-.112.26-.132.163-.231.353-.37.51-.148.166-.316.32-.498.448-.053.038-.224 0-.266-.058-.112-.151-.196-.331-.07-.525.03-.048.085-.09.091-.14.006-.046-.03-.108-.066-.142-.015-.015-.1.01-.12.04-.236.366-.574.622-.92.87-.024.017-.061.036-.065.058-.034.187-.17.232-.314.183-.15-.052-.293-.138-.302-.346-.004-.11-.068-.216-.105-.324-.134.063-.317.092-.39.197-.123.178-.26.279-.464.256-.124-.014-.276-.045-.353-.127-.06-.066-.06-.232-.026-.333.043-.126.156-.225.225-.345.08-.14.142-.29.22-.43.033-.063.074-.143.13-.166.288-.113.355-.345.356-.618.002-.331.267-.489.561-.358.104.045.245.01.369.003.179-.008.276.057.224.249-.04.148-.013.312.115.35.121.037.283-.022.414-.073.076-.03.12-.136.19-.19.063-.047.155-.108.215-.092.079.02.182.1.2.172.064.25.156.506.041.77-.006.014.018.042.047.103l.244-.415-.177-.09c.038-.027.056-.049.07-.047.154.013.258-.02.257-.208 0-.1.493-.525.591-.527.21-.004.396.286.306.472-.045.093-.082.191-.122.288l.199.212c.124-.166.26-.337.384-.514.15-.214.342-.34.624-.32.038.086.08.195.138.294.01.016.12.006.142-.024.094-.125.172-.262.256-.395l-.055-.03c.058-.003.134.016.171-.013.285-.227.384-.218.603.089.047-.055.083-.119.137-.155.047-.031.114-.032.189-.05l.006-.149.241.047.093-.215c-.237-.084-.586-.035-.555-.464l.346-.003-.177-.222c.203-.232.506-.19.765-.258zm-90.75 9.908c.534.071 1.067.142 1.6.215.053.007.109.018.158.04.799.352 1.62.668 2.267 1.287.135.129.258.271.38.412.116.131.125.264-.053.34-.406.171-.809.36-1.229.49-1.241.384-2.484.768-3.74 1.098-.529.139-1.091.16-1.64.202-.706.053-1.415.09-2.122.099-.274.003-.552-.077-.822-.142-.172-.042-.166-.186-.074-.295.27-.322.536-.649.834-.944.762-.755 1.543-1.489 2.308-2.24.335-.329.706-.518 1.19-.486.31.02.625-.023.937-.038l.007-.038zm-.435-28.375l.004.063c.453-.021.906-.069 1.357-.059.915.02 1.815.13 2.635.59.741.415 1.491.814 2.22 1.25.73.437 1.12 1.152 1.364 1.93.17.544.265 1.119.335 1.686.077.629.115 1.265.122 1.898.008.75-.057 1.494-.275 2.222-.276.922-.489 1.864-.792 2.776a9.101 9.101 0 0 1-.78 1.719c-.565.963-1.224 1.872-1.786 2.838-.77 1.323-1.69 2.538-2.574 3.78-.45.63-.892 1.269-1.38 1.869-.498.611-1.053 1.177-1.575 1.769-.368.416-.69.88-1.092 1.259-.86.81-1.76 1.577-2.639 2.367-.413.37-.805.766-1.228 1.125-.705.6-1.573.914-2.395 1.3-.519.244-1.05.481-1.601.63-.513.138-1.057.159-1.588.226-.539.069-1.08.12-1.616.2-.922.136-1.822.057-2.727-.162-.622-.15-1.188-.371-1.724-.727-.7-.464-1.156-1.088-1.477-1.856a9.841 9.841 0 0 1-.731-3.218c-.048-.81.034-1.627.071-2.44.014-.296.056-.59.103-.883.012-.078.087-.145.134-.217.07.046.155.079.205.14.343.422.79.674 1.303.822.357.104.71.058 1.053-.064.432-.154.654-.617.58-1.158-.038-.286-.078-.574-.086-.862-.026-.964-.015-1.93-.06-2.893-.048-1.053-.16-2.103-.212-3.156-.053-1.071-.12-2.15.573-3.092.323-.438.6-.91.912-1.355.155-.222.275-.188.389.071.402.91.595 1.88.84 2.835.114.443.307.867.413 1.311.237.997.432 2.005.665 3.003.124.529.304 1.045.437 1.572.245.979.488 1.958.707 2.943.287 1.296.557 2.597.82 3.898a29.4 29.4 0 0 1 .286 1.701c.139.98.974 1.42 1.597 1.564.52.119.98.035 1.39-.33.378-.336.435-.743.372-1.213-.145-1.08-.593-2.076-.84-3.127-.178-.755-.29-1.527-.482-2.279-.45-1.76-.917-3.517-1.407-5.266-.274-.98-.621-1.938-.91-2.913-.148-.498-.232-1.014-.358-1.518-.227-.912-.48-1.818-.692-2.733-.145-.626-.383-1.212-.622-1.804-.469-1.16-.369-1.52.427-2.368.405-.432.863-.815 1.294-1.224.199-.189.399-.378.58-.583.27-.305.582-.397.965-.258l.639.214c1.139.408 2.285.797 3.412 1.234.855.33 1.672.76 2.529 1.082 1.575.592 3.17 1.131 4.751 1.706.692.252 1.37.544 2.058.806.464.177.93.351 1.403.498.553.171.872.018 1.116-.504.521-1.115.104-2.083-.918-2.553-.62-.285-1.267-.51-1.905-.755-1.556-.6-3.12-1.182-4.668-1.803-.75-.3-1.47-.678-2.208-1.01-.488-.221-.986-.42-1.478-.635a11.118 11.118 0 0 1-.736-.347c-.053-.028-.104-.123-.1-.184.003-.06.066-.15.121-.167.988-.29 1.977-.577 2.969-.85.312-.086.634-.149.956-.188.516-.063 1.036-.097 1.555-.143zm64.883 28.586c.14-.127.504-.129.644.001.131.122.241-.014.35.003.319.048.633.125.945.204.084.021.159.084.231.136.119.087.157.198.05.317-.09.098-.144.184-.035.306.022.024-.004.092-.009.139-.012.114-.042.229-.032.34.015.167-.088.291-.245.228-.16-.064-.296-.184-.447-.272-.069-.04-.147-.064-.222-.095-.005.084-.046.188-.01.248.118.207.2.448.474.528.101.03.181.132.277.206-.225.47-.681.426-1.064.531-.013.004-.038-.017-.046-.011-.345.267-.632-.126-.974-.099-.174.014-.465-.237-.54-.43-.135-.356.003-.494.398-.546l.096-.39.076.201c.045-.211.002-.448.38-.529l-.2-.154-.169-.13c-.016-.13-.054-.308-.052-.485.001-.084.06-.188.124-.247zm35.374-1.638l.327.108c.062.147.125.29.18.436.013.032.012.093-.01.112-.216.192-.064.457-.14.676.445.085.531-.37.885-.536.238.087.287.345.36.603.15.073.417.017.389.35-.007.073.182.162.29.251l.164-.042c.022.131.048.262.063.395.005.05-.03.105-.022.154.041.264-.174.436-.437.382-.265-.054-.46-.179-.593-.411-.349.379-.638.295-.916-.263-.146.027-.306.104-.434.068-.189-.055-.361-.182-.527-.298-.032-.022-.01-.14.005-.208.136-.59.275-1.178.416-1.777zm7.32.581c.031.093.083.185.088.28.015.236.01.475.012.763-.062.189-.008.468-.272.632-.056.035-.047.164-.101.212-.108.094-.234.217-.362.228-.19.018-.366-.084-.409-.306a.356.356 0 0 1 .026-.213c.136-.264.29-.52.426-.784.107-.208.184-.433.306-.63.054-.087.189-.123.287-.182zm-1.144-.575l.045.006c.12.053.195.21.274.305-.058.243-.097.418-.142.592-.046.181-.07.378-.156.538a2.938 2.938 0 0 1-.482.677c-.054.054-.302-.017-.41-.098-.238-.181-.226-.267-.067-.536.078-.13.113-.286.182-.422.154-.303.302-.61.483-.896.058-.091.246-.192.318-.16zm-6.978-.571c.008.09-.01.201.033.276.038.065.146.09.221.13-.009.026-.04.07-.037.114.006.1.06.208.038.3-.117.5-.251.995-.381 1.5l-.198-.135c-.196.21-.358.21-.566.035-.112-.094-.252-.156-.379-.232.24-.568 1.128-1.94 1.27-1.988zm6.377-.435l.038.011c.083.06.184.187.171.27a3.754 3.754 0 0 1-.195.741c-.09.248-.195.495-.331.718-.121.198-.288.37-.45.539-.054.056-.157.065-.297.12-.115-.093-.27-.169-.353-.294-.114-.175-.008-.326.146-.44l.044-.037a.376.376 0 0 0 .07-.089c.2-.36.387-.727.6-1.08a1.74 1.74 0 0 1 .354-.393c.058-.05.195-.088.24-.055zm-36.71-3.702l.001-.002.075-.056c.177-.108.364-.058.57.042l-.085.286c.156-.037.287-.076.422-.098a.975.975 0 0 1 .26-.002c.13.014.259.061.386.055.245-.012.345.107.365.39.175-.42.448-.369.753-.253.063.024.17-.026.239-.07.096-.06.177-.145.261-.223.116-.107.237-.122.344.001.121.141.271.288.199.498a4.512 4.512 0 0 1-.278.648c-.162.304-.347.596-.52.894-.114.195-.304.205-.476.15-.255-.08-.459-.115-.608.176-.034.067-.197.118-.276.094-.076-.022-.14-.144-.175-.235-.03-.081-.016-.18-.022-.277-.237-.057-.384.018-.567.2-.165.166-.46.237-.71.27-.215.028-.322-.302-.216-.547.125-.29.232-.587.377-.955-.147.032-.243.024-.269.063-.15.226-.366.41-.398.712-.021.202-.036.43-.313.495-.054.012-.087.126-.125.195-.048.09-.072.203-.14.269-.341.327-.693.641-1.05.968.21.08.43.14.624.246.114.062.204.187.278.301.102.159.002.326-.19.339-.034.002-.07.003-.106.003l-.229.001c.025.26-.032.438-.405.383.106.143.154.256.239.315.264.186.138.515-.151.611-.565.189-1.098.068-1.643-.048-.189-.04-.208-.17-.183-.32.019-.117.047-.236.093-.344.03-.072.093-.165.155-.178.054-.01.128.078.19.12l.471-.139c-.11-.124-.221-.241-.431-.173-.046.014-.154-.073-.188-.137-.064-.125-.084-.273-.145-.4-.086-.184-.032-.304.14-.378.091-.04.134-.056.144-.191.009-.12.184-.228.294-.35-.17-.118-.423-.245-.345-.506.103-.337.393-.459.718-.414l.08-.337-.051.012-.14-.718-.08.006c-.086.173-.172.347-.26.52-.174.345-.523.479-.858.308-.08-.04-.115-.17-.166-.252-.152.099-.283.243-.43.261-.13.017-.277-.108-.462-.19-.174.12-.274.491-.621.407-.109-.026-.185-.183-.245-.246-.172.028-.416.139-.506.064-.12-.1-.119-.345-.175-.545-.063.116-.126.235-.192.35-.239.42-.615.437-.89.048-.067-.097-.18-.172-.218-.277-.045-.124-.074-.283-.035-.403.098-.301.256-.583.358-.884.076-.226.198-.36.434-.4.045-.007.082-.07.143-.126l.172.327c.483-.219.703-.14.735.236l.54-.734c.15.258.254.433.388.662l.378-.561c.39-.148.438.222.56.56.15-.219.256-.393.384-.55a.557.557 0 0 1 .25-.17c.076-.025.183-.048.186.129.003.181.079.361.127.56.127-.142.311-.366.519-.277.164.07.253.32.367.478.03-.071.09-.197.135-.329.13-.378.237-.416.587-.193.054.035.1.084.156.133l.25-.201c-.295-.1-.46-.32-.408-.568.026-.125.3-.196.486-.307.007.021.006-.048-.025-.067-.245-.147-.155-.404-.202-.612-.04-.182.043-.303.24-.323.204-.02.41-.032.614-.06.152-.021.307-.047.45-.1.269-.1.644.092.666.375.006.088-.055.209-.125.27-.163.146-.35.264-.546.407.113.069.216.126.314.192.206.14.193.314-.034.429-.113.057-.257.085-.204.267v-.002.002zm-85.41-20.827c.203-.07.363.043.45.21.2.388.408.776.558 1.185.292.793.556 1.598.814 2.404.158.492.279.995.425 1.491.437 1.486.887 2.969 1.316 4.457.256.888.474 1.787.724 2.677.284 1.01.587 2.014.878 3.022.163.567.332 1.133.471 1.706.278 1.146.574 2.29.795 3.448.308 1.617.832 3.17 1.308 4.738.082.27.1.567.105.853.005.25-.166.401-.447.469-.256.061-.513-.012-.598-.242-.159-.428-.29-.868-.397-1.312a98.955 98.955 0 0 1-.554-2.478c-.345-1.609-.66-3.225-1.036-4.827-.15-.64-.425-1.25-.648-1.872-.397-1.109-.588-2.27-.85-3.412-.16-.696-.368-1.38-.553-2.07-.33-1.223-.644-2.45-.993-3.667-.257-.894-.562-1.775-.842-2.662l-.766-2.444c-.085-.27-.194-.53-.28-.8a1.547 1.547 0 0 1-.038-.142l-.056-.291c.02-.179.007-.37.213-.44zM125.646 34.69l.257.262-1.045 1.691c-.153-.096-.253-.184-.127-.39.322-.528.625-1.066.915-1.563zm-100.186.487c.459.079.8.24 1.11.47.112.085.22.177.314.28.04.042.052.124.047.186-.002.022-.09.06-.134.054-.539-.062-1.078-.123-1.613-.206-.106-.016-.258-.11-.278-.195-.022-.087.071-.23.153-.307.13-.121.293-.208.4-.282zm1.436-1.343c.182.12.341.202.475.316.16.135.31.287.445.448a28 28 0 0 1 .9 1.139c.05.066.019.191.025.29-.091-.009-.206.016-.27-.03-.661-.467-1.315-.945-1.968-1.423-.158-.116-.171-.257-.021-.393.13-.116.267-.224.414-.347zm97.844.055l.202.244.01.014v.003l.135.014.12.01.11.012c-.076.174-.123.307-.192.427a7.49 7.49 0 0 1-.364.582c-.127.182-.255.368-.412.522-.123.12-.282.217-.442.277-.066.024-.214-.054-.259-.126-.061-.1-.06-.237-.085-.359l.095-.04c-.269-.113-.187-.234-.041-.352.148-.12.317-.218.445-.356.06-.066.117-.134.173-.205l.324-.43.181-.237zm5.613-1.627c.204-.085.374.07.328.286-.044.208 0 .364.18.479.02.013.059.027.059.04-.014.405.336.35.56.435.059.286.038.534-.162.753-.032.036.007.138.014.21.073-.018.16-.016.22-.055.139-.092.257-.22.403-.298.068-.037.207-.024.265.025.051.043.071.182.042.253-.129.319-.282.627-.422.94-.04.09-.063.185-.137.248-.063.09-.141.174-.186.273-.048.106-.104.153-.216.11-.168-.062-.348-.105-.494-.201-.031-.02.046-.24.102-.353.13-.263.277-.517.43-.798l-.274.111.002.21a12.13 12.13 0 0 0-.08-.039c-.092.073-.155.164-.23.175-.161.024-.33.014-.494.003-.046-.002-.127-.057-.126-.086.009-.25-.23-.3-.335-.453-.071-.101-.067-.254-.102-.406-.128.02-.295.09-.428-.103-.118-.17-.146-.365-.016-.537.231-.305.45-.62.695-.912.106-.128.25-.246.402-.31zm3.404-1.94l.034.005c.094.06.165.172.219.276.03.059.007.146.007.22.369.086.43.225.293.58-.032.085.013.198.024.314.052-.025.081-.029.093-.046.094-.13.23-.253.366-.136.132.115.178.311.095.5l-.096.224.108.082c.065-.099.117-.21.2-.293.058-.059.206-.129.229-.106.088.087.209.218.195.315-.037.255-.141.498-.214.748-.02.072-.027.148-.04.222l.078.036.431-.655c.302-.046.417.135.325.57-.028.133-.04.27-.069.481.13-.107.19-.178.266-.213.097-.045.249-.117.303-.077.08.061.11.205.135.32.02.09-.004.187.015.29.123-.154.17-.392.424-.344.072.014.18.102.187.164.044.476-.021.948-.217 1.38-.09.198-.284.35-.445.51-.03.03-.12-.004-.233-.013l-.088.233v-.002l-.011-.07-.015-.101-.007-.043c-.029.007-.07.033-.104.024-.08-.02-.186-.036-.226-.093-.037-.052-.026-.17.008-.235.121-.234.262-.459.395-.687l-.11-.088c-.045.074-.074.175-.14.219-.204.133-.445.072-.677-.12-.067-.057-.218-.116-.255-.085-.167.14-.274-.007-.338-.084-.05-.058-.004-.207.018-.311.04-.193.094-.383.142-.575l-.062-.03-.302.233c-.115-.025-.211-.057-.31-.066-.268-.024-.309-.086-.202-.333l.036-.096-.559-.136a7.269 7.269 0 0 0-.006.064l-.161-.25.333-.604c-.19-.063-.404.243-.513-.014-.084.023-.179.068-.194.05a4.42 4.42 0 0 1-.369-.51c-.075-.126-.043-.16.058-.168.07-.183.109-.352.194-.492.132-.217.305-.41.439-.626.023-.038-.056-.14-.088-.214l.003.005.09-.027.1-.034c.084-.03.198-.111.242-.083zM28.046 32.708c.11.092.206.142.258.22.484.733.935 1.485 1.194 2.335.025.082.074.157.09.24.011.057-.014.121-.023.182-.07-.016-.167-.009-.204-.053a2.851 2.851 0 0 1-.123-.16l-.232-.332c-.334-.469-.67-.937-1.006-1.405-.095-.133-.21-.257-.281-.402-.041-.083-.052-.226-.007-.297.078-.123.21-.211.334-.328zm95.393.196c.337.267-.12.632.16.909.056-.044.138-.08.175-.14.102-.17.233-.067.34-.036.026.008.04.188.003.257-.088.163-.19.33-.325.455-.297.274-.619.522-.969.813-.05-.11-.122-.217-.146-.333-.06-.295-.048-.558.16-.831.243-.319.395-.706.602-1.094zm-.86-.059l.016.14.168-.098c-.016.655-.567 1.035-.735 1.568-.187-.087-.333-.15-.473-.223-.092-.048-.25-.111-.25-.169a.503.503 0 0 1 .144-.337c.13-.122.31-.189.452-.301.236-.187.459-.391.678-.58zm2.38 1.313l-.003-.004.002.004zm-.006-.007v-.001zM29.32 31.418c.193-.091.371.043.397.315.046.505.084 1.011.125 1.517l-.027.002c0 .196.01.392-.005.587-.006.07-.061.18-.112.191-.061.014-.186-.04-.207-.095-.214-.574-.428-1.15-.607-1.736-.07-.23.215-.675.436-.78zm57.453-.536c.222-.072.31.022.292.26-.01.136.02.276.03.411.254-.144.447-.282.662-.368.224-.091.431.117.356.352-.169.53-.389 1.036-.724 1.488-.142.193-.244.417-.363.628-.104.184-.235.196-.404.082-.067-.045-.156-.057-.278-.099l.117-.506-.244-.03c-.212-.028-.36-.251-.28-.446.218-.538.443-1.074.673-1.608.029-.067.097-.143.163-.164zm-7.547-.205l.044.017c.05.04.078.153.06.22-.068.247-.127.505-.247.727-.195.357-.436.688-.657 1.032-.024.038-.066.095-.053.122.163.352-.115.53-.256.762l-.068-.01a994.38 994.38 0 0 1-.147-.551c-.173.298-.45.35-.735.374-.085.007-.232-.014-.248-.06-.053-.15-.126-.347-.07-.473.146-.33.335-.648.546-.941.179-.248.404-.465.63-.674.064-.06.22-.09.299-.054.238.107.325-.068.449-.194.09-.09.175-.19.28-.26.056-.037.175-.054.217-.02zm3.675.224l.025.004c.063.08.138.201.117.284-.034.137-.13.264-.218.382-.088.116-.137.21-.039.354.036.053.011.182-.031.247-.128.197-.287.374-.418.57-.098.146-.235.163-.369.112-.119-.045-.155-.02-.234.076-.25.307-.29.3-.675.106-.071-.035-.16-.034-.248-.051-.062.126-.098.264-.185.354-.074.077-.236.16-.305.127-.087-.042-.173-.205-.163-.305.017-.154.108-.303.18-.448.149-.295.288-.597.466-.874.136-.214.281-.41.286-.68.001-.042.123-.127.163-.113.109.037.213.105.3.182.04.035.034.12.056.208.259-.204.367-.193.677.048.137-.165.266-.338.415-.491.054-.056.209-.108.225-.088zm38.85.91l.573.208c-.088.765-.719 1.002-1.236 1.335-.088.056-.27-.037-.452-.068l1.115-1.476zm-36.887-.914c.226.171.164.438.126.787.13-.092.218-.14.284-.206.11-.11.185-.266.311-.337a.386.386 0 0 1 .354.027c.067.054.069.223.058.337-.057.588-.386 1.074-.64 1.581-.076.151-.34.23-.534.283-.053.014-.17-.188-.246-.299-.04-.059-.053-.136-.086-.23-.245.094-.47.236-.662-.047-.067.045-.15.072-.182.129-.13.229-.285.207-.471.08-.139-.093-.257-.387-.168-.542.158-.277.349-.535.528-.799.059-.086.108-.21.19-.243.114-.044.242-.225.39-.037.008.011.107-.017.119-.045.117-.271.332-.406.63-.44zm44.698.785l.068.007c.16.042.325.187.235.416-.052.132-.127.255-.18.387-.02.053-.01.12-.01.145-.172.168-.343.306-.476.474-.235.296-.308.315-.638.066l.23-.003-.15-.214c-.056.049-.113.096-.165.149-.038.038-.065.09-.106.124-.056.047-.12.084-.181.125-.04-.092-.108-.184-.108-.276 0-.064.079-.156.145-.188.47-.226.685-.679.987-1.058.081-.102.295-.179.417-.147zm-49.774-.607c.071-.07.298-.036.425.018.093.04.14.189.182.251-.075.544-.134 1.035-.575 1.318a1.658 1.658 0 0 0-.522.498c-.084.13-.366.125-.492.024-.168-.134-.122-.246-.024-.418.168-.292.254-.632.421-.924.16-.278.36-.541.585-.767zm23.07-.064l.095.005c.18.03.27.157.236.332-.027.137-.099.265-.151.397-.07.176-.138.353-.213.526a1.212 1.212 0 0 1-.138.248c-.086.113-.173.231-.282.32-.144.116-.31.205-.492.323-.124-.085-.244-.123-.27-.196a.554.554 0 0 1-.006-.365c.159-.384.348-.755.521-1.134.117-.256.524-.497.795-.451zm-1.642-.078c.153-.057.35-.15.442.026.065.124.04.326-.007.473-.109.337-.333.62-.446.968-.084.256-.334.468-.538.67-.098.096-.25.104-.37-.039-.065-.075-.17-.115-.292-.195.064-.576.198-1.144.59-1.616.053-.065.156-.093.24-.13.125-.057.252-.11.381-.157zm20.132-.315c.019.079.057.158.055.236-.022.944-.694 1.521-1.227 2.172l-.476-.237.27-.33.078.033-.231-.206c.349-.416.706-.838 1.057-1.264.084-.102.13-.238.221-.328.056-.055.166-.052.253-.076zm-17.183.184c.14-.025.253.045.21.223-.028.119-.048.247-.107.35-.25.44-.506.874-.774 1.301-.052.083-.167.127-.295.219-.116-.095-.234-.155-.29-.25-.042-.072-.033-.206.006-.286.14-.277.293-.549.459-.811.073-.116.192-.2.284-.305.075-.087.129-.194.213-.27.084-.074.188-.152.294-.171zm-38.545-.73c.229.085.449.154.657.248.283.13.56.272.831.424a.304.304 0 0 1 .134.2c.026.223.188.325.333.455.06.054.104.172.09.25-.01.063-.114.12-.186.158-.205.109-.383.037-.577-.065-.154-.082-.345-.09-.516-.141-.162-.049-.342-.081-.47-.179-.11-.083-.17-.144-.278.069-.038-.318-.215-.36-.412-.404-.208-.046-.295-.259-.216-.45a.453.453 0 0 0 .025-.143c.01-.174.103-.27.27-.226.172.044.264-.01.315-.196zm74.78-.619c.106.717.12 1.414-.2 2.075l-.1-.01c-.001-.086-.005-.172-.002-.258l.057-1.513c.006-.156.028-.298.245-.294zm-7.165.583l.114.44.003-.005.003-.003.002-.002.003.005-.01.004-.044.064c-.037.048-.074.096-.101.146l-.031.078c-.078.325-.3.477-.576.63a.946.946 0 0 1-.556.131c-.072-.006-.186-.117-.19-.185-.006-.114.024-.28.103-.342.408-.324.682-.822 1.28-.96zm8.362-.163l.076.006c.016.07.044.14.046.21.01.415.019.83.016 1.244 0 .061-.063.122-.096.183-.047-.06-.132-.12-.135-.181a16.864 16.864 0 0 1-.015-1.145c.003-.106.07-.212.108-.317zm1.432-.193c.166-.115.262-.04.266.16 0 .051.013.102.027.2l.205-.373c.336.194.611.933.533 1.395-.327.14-.533.025-.665-.285.011.316-.138.386-.412.422-.263.035-.508.196-.79.314l-.016-1.58.297-.05.041.283c.086.043.17.05.245-.107.065-.14.149-.295.269-.379zm-3.32.132h.03l-.079 1.643-.154-.006.204-1.637zm1.322.171l.007.497.012.967-.208-.107.19-1.362-.001.005zm-1.99-.341l.094.01c.042.565-.045 1.121-.14 1.676-.403.016-.433-.025-.356-.39.089-.417.165-.836.246-1.254l.04-.017.045.412.045.004.026-.441zm-.797-.109c.03.096.096.196.085.286-.058.448-.136.893-.212 1.372l-.416-.13.474-1.518.07-.01zm-.513-.59c.002.167.032.293 0 .4-.153.508-.323 1.01-.496 1.546a501.22 501.22 0 0 1-.484-.191c.239-.553.468-1.094.712-1.628.025-.056.14-.07.268-.127zm-51.394.79c.257-.164.545-.064.818-.072.185-.005.372.05.557.05.29-.001.444.152.416.45-.03.313-.286.537-.646.49-.167.05-.332.126-.503.146-.172.02-.35-.012-.525-.027-.084-.007-.167-.037-.251-.04-.213-.007-.322-.125-.38-.319-.055-.186 0-.315.165-.416.123-.076.227-.184.35-.262zM67.41 24.978c.241 0 .504-.079.718-.006.345.117.771.097.988.497.132.244.018.491-.261.54-.09.015-.171.09-.284.154.149.106.246.162.328.236.129.116.132.27-.009.355-.338.204-.253.54-.29.837-.027.203.061.422-.151.587-.25.192-.467.137-.552-.186l-.426.142c.177.408.568.558.93.743a.22.22 0 0 0 .093.031c.135.002.343-.036.293.167-.037.145-.222.351-.348.356-.268.011-.438.071-.567.319-.05.095-.223.126-.359.196.07.052.141.092.193.15.078.085.141.184.21.277-.132.081-.263.221-.4.227-.169.007-.344-.096-.555-.164.186-.2.3-.376.156-.628-.05.037-.108.064-.147.108-.21.237-.335.252-.628.14-.147-.058-.321-.039-.478-.075-.14-.032-.33-.055-.396-.151-.132-.194-.003-.364.161-.503.069-.058.16-.155.153-.226-.027-.286.196-.455.306-.665.09-.171.301-.29.48-.396.112-.068.264-.07.406-.102l.082-.25c-.181-.018-.59-.368-.6-.554-.004-.083.048-.22.112-.248.215-.095.447-.153.675-.225-.147-.18-.156-.336.127-.453-.24-.064-.31-.168-.255-.37.027-.095-.006-.222-.045-.32-.128-.319.009-.54.34-.54zm65.945 5.49l-.003.003-.003.004.006-.007zm2.39-2.586l.061.022c.132.071.238.21.135.415-.059.117-.031.277-.001.456.109-.125.212-.255.329-.371.065-.065.18-.165.225-.144a.44.44 0 0 1 .219.241c.024.078-.038.188-.072.28-.024.064-.073.12-.097.184-.005.011.078.073.084.068.05-.044.095-.095.137-.148.107-.137.21-.276.316-.414l.07.039c-.128.316-.252.636-.388.95-.136.312-.284.618-.427.927-.313-.012-.33-.038-.244-.362-.578-.163-.578-.163-.561-.563-.2-.02-.408-.01-.593-.07-.242-.078-.25-.223-.095-.425.217-.284.416-.58.62-.873.086-.123.193-.271.343-.19zM7.442 12.756c.082.071.213.128.239.216.16.541.33 1.083.433 1.637.13.703.189 1.418.293 2.126.125.845.281 1.686.395 2.533.036.262.067.525.096.788l.166 1.58c.046.426.103.85.142 1.276.053.576.096 1.153.137 1.73.065.919.135 1.838.183 2.758.039.765.053 1.531.07 2.297.006.254-.133.426-.362.527-.274.122-.472.031-.554-.262-.24-.858-.282-1.738-.23-2.627-.094-.986-.193-1.971-.278-2.958-.072-.833-.121-1.667-.194-2.5-.041-.465-.113-.928-.164-1.392-.088-.79-.174-1.58-.254-2.37-.08-.783-.153-1.567-.226-2.351-.019-.203-.043-.407-.035-.61.027-.717-.18-1.432-.03-2.15.018-.09.113-.166.173-.248zm50.945 11.898c.327-.015.705.365.69.691-.002.025-.003.056.01.073.3.38.052.899.361 1.276l-.042.074-.474-.03c-.133.629-.223.717-.759.603.084.263.139.484.226.69.073.173.032.305-.109.384-.062.035-.202.007-.26-.045a1.256 1.256 0 0 1-.288-.38c-.066-.14-.076-.306-.166-.461-.016.064-.048.13-.045.193.015.321.062.643.055.964-.01.402-.117.784-.404 1.088-.029.03-.09.037-.139.04-.159.012-.622-.375-.704-.575-.043.063-.103.122-.125.192-.072.224-.118.457-.199.677-.038.105-.106.235-.22.014-.084-.165-.202-.293-.103-.497.095-.194.086-.382-.126-.498.048-.257.1-.532.385-.553.103-.008.224.218.337.338l.125-.175-.065-.017c-.035-.23-.049-.436-.1-.632-.068-.261-.006-.457.214-.627.075-.058.234-.094.136-.26-.013-.021.016-.083.042-.11.197-.213.396-.424.603-.628.032-.03.107-.031.16-.025.168.023.335.055.532.088-.046-.418-.066-.78-.13-1.133-.084-.46.104-.717.582-.739zm66.288 3.126c.337-.022.358.009.25.348-.02.063-.012.135.039.211.067-.12.117-.256.205-.358.085-.099.206-.26.317-.01a.041.041 0 0 0 .015.019c.13.075.323.107.263.325-.04.145-.121.278-.166.423-.08.258-.114.537-.23.777-.101.211-.279.391-.449.558-.022.022-.217-.1-.301-.186-.068-.068-.17-.166-.049-.288.052-.052.088-.12.131-.181l-.084-.083c-.081.083-.157.173-.245.247-.1.083-.22.22-.314.208-.096-.012-.229-.17-.245-.279-.023-.153.027-.327.08-.48.109-.308.245-.607.36-.914.075-.203.203-.322.423-.337zm1.656.076l.392.233c-.02.226-.008.48-.073.715-.073.264-.21.51-.329.76-.052.11-.138.204-.187.316-.063.142-.183.15-.282.102-.061-.029-.125-.154-.112-.221.055-.296.143-.586.208-.881.036-.16.045-.327.075-.489.041-.227.105-.443.308-.535zm-39.623.605c.069-.176.222-.245.412-.185.09.029.189.027.284.033.031.002.073-.03.094-.02.287.158.605.122.912.162.206.027.273.147.264.393.014.17-.102.263-.302.318-.389.104-.764.269-1.156.338-.229.04-.488-.037-.717-.112-.048-.016-.055-.268-.021-.395.049-.184.16-.352.23-.532zm9.499-2.3c.137-.294.222-.322.498-.142.026.017.072.004.108.007l1.256.105-.014.322c.041.014.104.032.164.056.182.073.172.196.042.294-.124.093-.276.15-.42.213a.597.597 0 0 1-.08.027l-.169.04c.086.084.218.18.206.206-.064.136-.142.293-.26.367-.115.07-.286.053-.433.063-.159.01-.318.005-.477.006l-.017.073c.138.042.278.076.412.127.12.045.233.107.348.161-.106.16-.179.401-.325.46a2.16 2.16 0 0 1-1.06.13c-.03-.004-.062.032-.093.05-.199.104-.392.067-.572-.04-.177-.106-.233-.33-.09-.481.146-.153.34-.262.518-.382.047-.032.117-.032.208-.055-.2-.204-.344-.392-.14-.64.022-.025.014-.093-.004-.128-.159-.297-.095-.479.2-.622a.47.47 0 0 0 .194-.217zm-19.033.25l.05.069c.099.118.223.215.315.337.014.019.018.045.021.052l-.31.207.021.052.148-.017c.132-.017.179.021.154.168a3.282 3.282 0 0 0-.03.221l-.038.446c-.028.275-.129.503-.395.63-.048.023-.08.079-.12.12-.143-.083-.34-.12-.268-.322-.246.003-.47.007-.695.006a.345.345 0 0 1-.304-.17l-.021-.046.115.026.132.014c.17.01.388-.407.54-.658.182-.3.242-.72.49-.926.064-.053.117-.105.159-.156l.036-.053zm-4.046-8.097c.183.042.417.257.463.44.157.615.333 1.23.475 1.85l.047.226-.02.02a6.091 6.091 0 0 0-.697.986c-.094.173-.197.46.015.617.206.154.129.304.103.474-.033.23-.24.51.172.615.013.004.02.027.035.035l.392.254-.21.755.241-.025c-.17.26-.012.427.13.57.134.133.315.141.478.024.097-.07.194-.142.279-.225.176-.172.344-.353.516-.53a24.51 24.51 0 0 1-.614 1.376c-.063.13-.16.245-.22.377-.106.239.219.146.238.295a.062.062 0 0 0 .007.024c.155.256.428.286.625.064.056-.063.1-.137.15-.207l.086.037c-.058.138-.129.272-.171.415-.04.134-.119.342-.06.405.218.236.163.479.099.733a.4.4 0 0 0 .006.226l.009.019-.02-.003a1.753 1.753 0 0 1-.732-.407c-.332-.317-.565-.747-.8-1.152-.087-.152-.052-.373-.087-.56-.035-.187-.031-.42-.141-.55-.438-.516-.52-1.128-.623-1.764-.115-.715-.435-1.4-.511-2.116-.105-.981-.776-1.955-.131-2.961.101-.16.342-.366.47-.337zm16.483 4.27c.29-.043.526.099.774.183.146.05.154.22.06.36a.91.91 0 0 1-.705.423 2.153 2.153 0 0 0-.59.11c.22.04.44.078.66.12.166.034.331.072.496.111.03.008.08.024.084.045.067.297.42.43.427.76 0 .024.013.052.005.072-.183.486-.36.976-.563 1.453-.034.08-.22.174-.279.146-.157-.076-.474-.018-.35-.387-.247.013-.404-.001-.45.274-.03.181-.216.336-.34.515.337.16.276.472.258.75-.014.215-.234.147-.36.173-.355.075-.726.083-1.071.183-.289.084-.825-.106-.982-.277-.116-.126.04-.464.229-.517.092-.026.201-.052.263-.117.34-.356.787-.267 1.196-.315l-.006-.59c-.157-.037-.354-.04-.495-.13a.547.547 0 0 1-.217-.381c-.005-.106.111-.28.214-.32.314-.122.653-.18.972-.293.102-.037.17-.168.253-.257a5.155 5.155 0 0 1-.038-.054c-.181.002-.365-.015-.543.01-.167.025-.46-.047-.516-.165-.081-.172.023-.513.19-.604.192-.104.386-.2.587-.305-.108-.074-.22-.175-.35-.235-.196-.089-.223-.251-.177-.41.042-.148.155-.255.345-.26.34-.008.683-.021 1.019-.071zm-36.336.288c.37.264.59.639.692 1.06.062.26.02.549-.01.82-.006.058-.163.125-.257.137-.099.012-.205-.037-.343-.066.01.173.013.338.03.5.017.167.018.357-.162.395-.137.029-.3-.058-.45-.097-.026-.007-.047-.032-.1-.04.192.364.214.74.126 1.124-.053.235-.202.336-.362.205-.33-.269-.53-.062-.749.146-.112.105-.435.05-.5-.093a15.394 15.394 0 0 1-.326-.778c-.051-.13-.237-.226-.108-.404.04-.054.068-.12.118-.159.093-.073.199-.129.297-.195.19-.128.52-.043.626.157.052.098.114.191.171.286l.074-.02c-.017-.07-.03-.141-.05-.21-.043-.14-.092-.28-.137-.42-.012-.04-.008-.089-.032-.119-.27-.348-.272-.362.008-.677.404.219.562.644.816 1 .094-.354.029-.583-.18-.835-.079-.094-.096-.238-.145-.357-.06-.143-.018-.229.124-.288.033-.014.036-.098.054-.155.262-.008.346.211.463.363.119.153.176.359.395.417.078-.388-.026-.702-.223-1.014-.119-.187-.188-.433.099-.587.022-.012.026-.059.04-.096zm38.102 1.4h.04c.104.05.177.169.253.267.033.043.04.106.064.175.13-.076.245-.158.372-.213.155-.067.296-.057.407.105.032.047.133.054.204.063.268.034.38.14.434.437.062-.088.134-.16.168-.245.115-.288.304-.207.506-.126.06.023.146.04.195.012.234-.126.435-.027.47.29.062-.06.107-.096.14-.14.179-.24.26-.255.531-.132.064.029.157-.004.236-.013.227-.028.306.033.335.261.014.007.03.02.043.018.416-.049.499.062.36.475-.065.194-.117.393-.183.587-.067.198-.204.28-.387.206-.042.144-.053.28-.117.384-.198.315-.204.307-.538.13a.37.37 0 0 0-.227-.034c-.214.043-.357-.019-.44-.228-.016-.038-.108-.08-.148-.067-.216.07-.384.026-.49-.181-.38.234-.455.22-.713-.13-.166.185-.328.417-.616.243-.07-.041-.075-.189-.118-.307-.13.15-.25.39-.518.234-.212-.124-.204-.355-.179-.638-.105.237-.144.425-.256.545-.082.088-.28.146-.39.109-.136-.046-.259-.173-.191-.39.128-.412.217-.837.34-1.252a.794.794 0 0 1 .202-.303c.068-.07.199-.166.25-.141zm26.38 1.561c.502-.005.993-.432 1.468.055-.12.163-.27.374-.428.577-.091.116-.737.151-.888.057-.042-.026-.079-.063-.123-.084-.154-.074-.225-.166-.115-.338.046-.072.055-.167.086-.267zm-40.762-.309c.234.33.37.587.197.863l-.018.024-.018-.024a.587.587 0 0 1-.086-.227c-.008-.053-.166-.083-.276-.134.06-.137.142-.288.12-.45l-.006-.024.087-.028zm-2.417-4.99c.198.41-.036.713-.142 1.06.385-.05.389-.438.627-.582.363.077.41.17.27.523-.067.17-.127.344-.205.556l.17.284-.15.182c.21.05.395.112.388.362.212-.019.32.07.242.274-.134.345-.062.716-.18 1.057-.007.02.006.046.015.097.144-.106.274-.205.408-.298.083-.057.172-.105.259-.157.057.122.17.25.159.365-.015.155.01.292.021.44.015.193-.075.394-.125.616.163-.074.3-.154.453.014a.503.503 0 0 1 .107.168l.013.057-.176.06c-.17.059-.332.113-.483.164l-.219.075c-.168-.548-.223-1.107-.493-1.526-.478-.742-1.142-1.316-1.235-2.32a9.56 9.56 0 0 0-.138-.937l-.051-.238.06-.057c.088-.07.197-.123.302-.18zm23.185 2.776c.289.027.578.08.86.154.122.032.225.134.142.302-.03.059-.024.135-.049.198-.024.065-.053.158-.103.177-.297.113-.6.208-.927.371.21.082.423.161.631.25.051.02.121.065.129.109.027.153.052.312.036.464-.009.08-.094.204-.162.217a11.78 11.78 0 0 1-1.011.143c-.166.018-.336.009-.503.005a.309.309 0 0 1-.162-.04c-.143-.1-.2-.49-.124-.657.084-.188.232-.18.393-.173.336.016.48-.056.575-.32l-.549-.086c-.295-.045-.39-.238-.246-.494.045-.082.06-.183.113-.256.117-.157.197-.355.47-.31.155.027.328-.07.487-.054zm-36.478-4.841c.106-.055.316-.058.395.012.445.396.683.912.76 1.503.005.032-.002.067.003.1.074.533-.003.627-.536.657-.013.001-.025.02-.044.037.043.096.098.192.126.295.05.182-.003.32-.188.404-.042.02-.089.116-.076.159.16.534-.012.747-.574.7h-.084c.015.105.026.204.043.302.064.368.138.735.19 1.105.027.196-.082.27-.272.211a.415.415 0 0 0-.12-.021c-.191-.001-.383.002-.577.004-.009.196-.025.454-.032.711-.005.176.018.355-.004.528-.013.107.058.308-.187.272-.023-.004-.063.027-.078.052-.153.257-.305.115-.431-.014a3.425 3.425 0 0 1-.778-1.292c-.083-.24-.156-.584.097-.814.101-.09.265-.112.39-.161.113-.145.223-.276.321-.415a.373.373 0 0 0 .055-.177c.017-.195.024-.39.039-.585.004-.058.042-.122.025-.17-.083-.239.008-.393.207-.522.2-.13.34.004.495.087.014.008.032.006.1.016-.03-.153-.076-.287-.081-.423a7.731 7.731 0 0 1 .01-.785c.003-.04.102-.069.145-.113.046-.048.108-.107.11-.163.006-.16.022-.347.208-.321.14.02.279.16.385.277.082.089.112.224.18.369.052-.085.118-.15.105-.178-.093-.198-.15-.38.062-.545.009-.008-.065-.187-.125-.206-.26-.083-.283-.333-.393-.52-.099-.165.012-.317.129-.376zm57.876 1.735c.116.02.218.139.338.225.298-.172.592.023.889.092.061.014.148.229.116.276-.089.128-.22.264-.362.307-.139.042-.27.035-.31.259.132-.023.244-.058.356-.059.117 0 .319.008.332.056a.563.563 0 0 1-.038.4c-.171.298-.462.377-.794.44-.167.032-.354.022-.56.093.198.16.277.412.589.358.086-.015.278.124.286.206.022.209-.144.349-.32.436-.05.025-.102.046-.154.065l-.318.105c-.1-.01-.203-.034-.302-.025-.09.008-.178.052-.267.08l.006.02-.006.004.035.157.57-.181-.013-.017.013-.002c.09-.017.181-.03.271-.048l.134-.031c.132-.038.293-.083.332.073a.481.481 0 0 1-.108.39c-.173.172-.393.296-.627.464.13 0 .24-.014.345 0 .092.013.205.032.264.093.041.042.04.182 0 .236-.085.12-.193.237-.317.311-.21.124-.444.208-.66.32-.17.089-.748.029-.874-.105-.151-.158-.12-.382.075-.513.078-.053.164-.093.207-.118l-.385-.64.693-.337c-.053-.055-.095-.11-.148-.15-.23-.177-.186-.558.083-.679.104-.047.226-.064.317-.128.058-.04.092-.138.103-.216.007-.045-.041-.123-.085-.146-.406-.204-.427-.433-.057-.717.09-.068.195-.114.28-.186.068-.057.117-.138.17-.203-.132-.099-.266-.186-.385-.29-.187-.163-.058-.344.016-.493.045-.089.188-.194.27-.182zm-6.132-.636l.01.003c.133.125.264.25.437.322.008.002-.015.168-.064.204-.208.156-.436.286-.647.439-.072.052-.1.171-.174.215-.262.155-.536.29-.882.474.112.105.17.195.252.23.235.1.293.212.191.469l-.17-.077a120.75 120.75 0 0 1-.202-.09l.03.153c-.522.342-.98.763-1.57.916l-.02.58c.376-.215.713-.427 1.068-.601.157-.077.351-.078.53-.102.007 0 .066.153.04.186-.228.289-.452.586-.715.84-.177.17-.413.28-.627.41-.077.048-.176.061-.246.115a2.898 2.898 0 0 0-.362.318c-.2.21-.438.27-.718.232-.062-.008-.161.084-.194.061-.124-.089-.262-.188-.332-.317-.083-.155-.138-.362.046-.497.144-.105.343-.143.472-.26.218-.2.495-.114.73-.21.133-.056.299-.439.229-.564-.02-.034-.078-.062-.12-.063-.064-.003-.136.044-.192.027-.147-.046-.288-.114-.432-.174.051-.12.072-.272.158-.355a5.22 5.22 0 0 1 1.148-.81c.161-.086.325-.171.48-.268.04-.024.051-.091.082-.15-.05-.019-.079-.038-.109-.04-.324-.018-.43-.093-.454-.325-.025-.257.084-.374.372-.467.425-.137.833-.296 1.199-.579.194-.15.492-.167.743-.243.007-.003.02-.004.024 0zm-42.19-3.732c.313.005.627.056.94.096.134.017.272.037.398.083.087.031.198.094.227.17.098.263.163.539.247.808.013.042.057.074.09.109.176.189.154.279-.079.408-.06.033-.095.112-.137.173-.037.053-.063.154-.1.157-.381.029-.336.378-.46.598-.003.007-.01.011-.022.022-.23-.002-.482-.085-.67.16-.038.049-.17.024-.292.038l.176.32c.2-.21.377-.061.507.058.13.12.09.279-.06.404-.035.028-.026.184.013.211.228.162.07.34.028.503-.04.151-.164.106-.284.09-.062-.008-.156.059-.198.119-.048.07-.054.169-.083.273-.177-.1-.344-.188-.202-.482l-.744.064c.126.433.284.555.658.625.1.018.243.15.253.242.021.19-.12.322-.31.352-.14.023-.285.008-.45.009.393.35.372.708-.094 1.038.11.087.205.151.284.232.059.06.138.142.134.211-.005.121-.063.237-.23.228-.157-.008-.315.001-.498.003l.19-.76-.483-.187.174.457c-.132.312-.626.294-.716.749.314.05.622.089.923.156.1.021.225.1.259.184.027.067-.06.187-.11.277-.044.081-.112.15-.16.23-.094.154-.164.325-.388.132-.1-.087-.189-.037-.22.115-.019.095-.099.176-.151.264l-.064-.044-.06-.413c-.155-.062-.296-.151-.401.107a.704.704 0 0 1-.326.346c-.115.054-.284.004-.426-.02a.48.48 0 0 1-.406-.447c-.004-.049-.054-.102-.098-.135-.127-.096-.147-.215-.074-.344.07-.122.16-.16.277-.035.023.025.102-.003.16-.007-.139-.395-.082-.472.272-.69.147-.091.192.036.284.046.16.017.315.1.472.155l.047-.096c-.154-.088-.312-.17-.457-.27-.041-.027-.074-.116-.062-.165.03-.129.08-.255.138-.374.042-.088.108-.165.162-.243l-.08-.266c-.004-.015-.01-.037-.02-.043-.234-.116-.202-.29-.094-.47.138-.228.341-.282.588-.192.037.012.078.012.165.024-.057-.171-.102-.314-.153-.455-.034-.092-.077-.18-.116-.27.112-.044.226-.128.334-.122.181.011.316-.033.422-.174.063-.084.084-.145-.005-.25-.28-.335-.246-.53.064-.861a.737.737 0 0 0 .203-.385c.037-.33.157-.408.474-.254l.054-.046c-.027-.032-.047-.079-.081-.095-.173-.08-.475-.592-.399-.76.06-.134.206-.232.325-.331.06-.05.146-.066.203-.09.053.059.108.162.151.157.094-.011.183-.076.274-.119l.013-.065c-.252-.03-.316-.124-.204-.341.033-.064-.066-.195-.102-.297-.049-.14-.143-.287-.123-.415.012-.081.2-.191.308-.19zm-16.67 6.328c.232-.055.33.019.383.243.032.136.102.268.178.387.175.272.403.512.3.89-.034.125.057.28.06.421.002.092-.03.242-.087.264-.118.047-.279.085-.346-.11-.1-.285-.2-.57-.307-.851-.095-.25-.2-.495-.312-.77l.13-.474zm64.84 1.276l.202.032.023.029-.272.068-.285.07-.018-.06-.011-.041.083-.037.088-.039.09-.023a.466.466 0 0 1 .1 0zm-63.628-2.437c.13-.026.288-.071.396.13.186.347.424.664.637.996.173.27.177.461-.041.627-.1.077-.273.06-.413.085l-.096-.048c.001.159.016.32 0 .477-.01.097-.058.264-.103.269a.766.766 0 0 1-.38-.08c-.049-.023-.07-.136-.078-.21-.04-.344-.12-.673-.296-.977a5.108 5.108 0 0 1-.321-.63c-.025-.06.048-.16.076-.242.062.024.122.06.186.07.094.016.19.014.285.02.001-.07-.013-.145.007-.208.034-.102.077-.267.14-.28zm43.433 1.21c.319-.009.53.244.407.45-.09.153-.207.326-.356.396-.144.069-.344.023-.52.02-.089-.002-.184-.045-.264-.024-.09.024-.166.1-.245.152-.132-.1-.307-.217-.46-.357-.07-.064-.15-.196-.128-.262.037-.106.147-.246.242-.26.438-.062.881-.104 1.324-.116zM47.52 20.506l.01.061.016.088c.255-.053.24.17.295.305.102.255.187.516.283.782l.124-1.032.065-.005.098.22.145-.242c.076.204.17.408.226.622.075.29.142.585.171.882.027.27-.117.42-.36.413-.227-.006-.26-.201-.302-.373-.024-.099-.041-.2-.063-.305-.11.229-.185.451-.315.635-.113.16-.3.213-.494.103-.176-.101-.426-.064-.537-.288-.026-.05-.09-.101-.084-.145.046-.35-.133-.626-.288-.908-.168-.306-.164-.34.107-.544.026-.02.05-.042.076-.065l.527.455.3-.66v.001zm8.565-.974c.12-.202.228-.208.373-.032.175.212.325.444.501.653.063.074.171.11.259.162l-.006-.004-.028.099c-.033.196.079.364.155.534l.034.085c.102.294.063.46-.203.606-.067.037-.104.148-.13.232-.013.047.037.109.04.164.007.131.087.31-.127.339-.189.025-.34-.03-.428-.243-.157-.38-.355-.743-.525-1.117-.1-.22-.18-.45-.267-.675-.011-.03-.016-.072-.004-.098.115-.237.222-.48.356-.705zm-6.732 1.029c.052-.01.145.134.2.22.07.108.105.24.18.342.192.263.295.554.165.858-.06.141-.235.232-.3.291-.408-.003-.49-.158-.408-.454.035-.125-.013-.29-.068-.419-.09-.211-.183-.423-.058-.635a.475.475 0 0 1 .29-.203zm39.868.616c.533.056 1.065.126 1.59.232.086.017.187.24.18.363-.008.125-.118.319-.222.35-.255.075-.532.086-.802.093-.088.003-.18-.083-.27-.13-.055-.03-.105-.08-.163-.09-.207-.034-.244-.068-.256-.252-.106-.011-.236.005-.253-.032-.05-.107-.098-.249-.065-.35.027-.085.177-.192.261-.184zM50.22 19.91c.029-.021.205.07.204.109-.002.398.254.713.325 1.084.007.032.002.066.003.127-.012.166-.05.362-.034.553.017.208-.116.291-.254.337-.086.028-.218-.023-.306-.078-.153-.093-.06-.234-.057-.369a1.974 1.974 0 0 0-.118-.671c-.092-.266-.15-.527-.037-.787.053-.12.166-.224.274-.305zm48.94.847c.113-.056.307-.013.433.049.062.03.058.207.074.318.023.165.09.353-.15.42a3.942 3.942 0 0 1-.493.115c-.32.047-.643.082-.966.115a.754.754 0 0 1-.29-.01c-.182-.055-.336-.156-.275-.388.045-.172.074-.365.176-.5.07-.092.25-.101.345-.135.188.028.33.031.461.073.24.077.451.059.685-.057zM45.73 20.37l.03.008c.278.166.507.586.512.999-.02.049-.046.19-.13.276a.463.463 0 0 1-.32.113c-.052-.002-.128-.14-.142-.225-.048-.292-.08-.588-.102-.884-.007-.088.03-.182.062-.267.006-.018.09-.03.12-.012zm5.124-.984c.195-.237.411-.16.517.183.107.348.172.71.243 1.013-.032.199-.035.342-.08.471-.058.17-.188.254-.379.226-.18-.027-.193-.143-.212-.3-.044-.364-.144-.722-.183-1.087-.019-.167-.003-.389.094-.506zm39.51-1.289c.283-.379.661-.238 1.02-.207.126.01.25.047.378.062.412.05.552.264.525.689a2.1 2.1 0 0 0 .005.364c.033.294-.023.571-.144.836-.15.332-.308.66-.461.991-.134.29-.206.3-.415.09-.192.001-.398.06-.454-.008-.134-.16-.273-.366-.079-.652-.11.001-.18.005-.249.002-.27-.01-.547.007-.811-.043-.251-.048-.322-.355-.142-.551.115-.126.2-.232.187-.426-.013-.185.127-.302.324-.298.261.006.523.027.784.035.088.002.177-.017.245.033.062.023.123.063.185.064.034 0 .069-.068.103-.104-.06-.03-.117-.072-.18-.084-.259-.048-.533-.031-.772-.159-.137-.073-.142-.511-.05-.634zm3.068.778l.054.011c.19.087.288.331.222.531-.063.19-.116.384-.173.576l.086.034c.227-.291.055-.782.523-.96.275.1.396.476.242.913-.053.15-.067.324-.15.454-.122.188-.268.378-.45.5-.072.048-.265-.082-.357-.115-.164.066-.316.132-.472.187-.032.011-.104-.009-.113-.032-.098-.237-.34-.305-.508-.459-.22-.203-.02-.406.091-.565.193-.278.45-.509.54-.857.033-.128.404-.259.519-.207zm-35.746-.62c.054.037.119.066.161.115.105.121.22.24.295.38.174.323.344.651.482.991.065.161-.134.361-.302.345-.257-.024-.397.095-.408.35a.401.401 0 0 0 0 .05c.016.18.066.417-.168.452-.21.032-.353-.152-.43-.354-.035-.091-.068-.183-.102-.274v.003l.004.003-.057-.209-.063-.206c-.062-.181-.134-.358-.202-.537-.023-.062-.029-.14-.071-.183-.148-.15-.161-.28.022-.409.022-.016.028-.054.043-.08l.099-.177.181.147c.169-.178.28.034.41.113.258-.133.09-.318.05-.485l.056-.036zm38.526 1.797l-.01.085a.757.757 0 0 1-.332.598c-.206.15-.44.036-.624-.322-.072.065-.12.126-.182.16-.101.054-.241.153-.312.12a.344.344 0 0 1-.207-.35c.018-.457.196-.83.497-1.154.05-.053.147-.076.224-.08.025 0 .07.1.081.16.035.179.058.36.086.541l.066.016c.08-.198.145-.405.246-.593.077-.145.179-.298.311-.382.06-.038.296.061.32.138.045.151.011.333-.018.496-.02.115-.088.221-.15.366.293-.052.386-.277.475-.478a.697.697 0 0 1 .587-.419c.054-.003.103-.068.158-.1.076-.042.15-.101.233-.116.32-.06.338-.043.294.293-.05.376-.096.753-.177 1.123a.907.907 0 0 1-.236.399c-.074.078-.239.166-.307.133-.117-.057-.25-.179-.164-.364.008-.018-.006-.045-.018-.118-.08.148-.124.274-.206.363-.066.07-.186.14-.271.128-.095-.013-.226-.103-.253-.188-.052-.167-.043-.355-.096-.54l-.001.003-.014.082zm-44.245-1.646c.038.03.107.057.122.101.12.353.196.723.349 1.059.146.321-.01.602-.035.9-.004.055-.136.132-.216.142-.105.013-.25.003-.316-.06-.088-.086-.19-.258-.158-.348.13-.375-.06-.711-.076-1.065-.013-.291.047-.554.33-.729zm47.028.907c.293.013.586.047.876.093.278.044.32.113.317.401-.003.308-.089.355-.392.456-.315.104-.616.193-.95.13-.05-.009-.115.052-.173.08-.247.115-.596-.088-.58-.348.004-.07.06-.144.106-.205.08-.103.204-.185.249-.3.104-.264.314-.318.547-.307zm-41.782.998v.002l-.001-.001v-.001zm-3.086-2.905l.09.01c.08.281.174.56.238.844.032.142.04.334-.137.38-.115.03-.257-.05-.418-.087 0 .027 0 .092.002.157.005.14.073.355.008.41-.277.231-.31.657-.658.81-.085.038-.287.02-.293-.008-.031-.133-.243-.218-.096-.41.058-.077.051-.244.012-.346-.096-.248-.238-.478-.34-.724-.046-.108-.042-.237-.06-.357.185.023.195-.388.445-.17.017-.026.03-.037.034-.05.03-.12.026-.312.096-.345.202-.095.359.07.5.197.067.059.1.156.163.26.086-.113.158-.205.227-.3.064-.09.124-.18.187-.271zm60.224-.95c.274-.163.367-.167.521.024l-.175.571c-.11.046-.216.06-.274.122-.076.079-.09.163.003.29.123.167.02.34-.172.463l-.067-.232c-.038.137-.09.242-.088.345 0 .103.05.206.086.306.006.015.014.029.023.043l.06.08c-.045.03-.087.075-.138.088-.116.03-.236.046-.376.072l.032-.262c-.105.078-.199.115-.2.155-.011.377-.35.45-.575.609-.162.112-.38.148-.578.202-.274.076-.477-.08-.567-.422-.074-.279.18-.286.322-.38.112-.075.232-.141.356-.192.287-.117.58-.222.9-.343l-.024-.232c-.267.003-.52.011-.772.006-.158-.004-.375-.233-.404-.39-.042-.226.048-.365.266-.411.261-.055.525-.097.788-.14.154-.026.308-.052.463-.062.174-.01.361-.045.477.154.017.03.096.023.16.035-.025-.182-.376-.303-.047-.499zm-14.167 1.522a.822.822 0 0 1 .678.288c.042.051.023.213-.028.27-.182.204-.493.315-.779.302-.095.018-.192.032-.287.053-.348.077-.824-.11-.943-.372-.108-.24.047-.451.319-.463.347-.015.693-.068 1.04-.078zm1.01-2.787l.048.008c.143.041.347-.021.36.238.017.322-.037.425-.305.503a.146.146 0 0 0-.02.008l-.055.027.151.186c-.22.288-.52.446-.937.532.3.075.522.11.727.19.096.039.232.183.217.247-.031.129-.147.241-.242.347-.032.035-.109.034-.166.04-.311.026-.624.078-.921-.091-.059-.034-.174-.027-.233.01a.296.296 0 0 1-.4-.052c-.079-.092-.14-.29-.093-.378.066-.126.228-.223.37-.28.132-.054.294.01.409-.152.12-.17.105-.403-.076-.511-.077-.046-.166-.09-.213-.158-.06-.09-.131-.216-.111-.307.017-.08.144-.175.238-.195.38-.083.767-.14 1.152-.206a.35.35 0 0 1 .148.002zm-9.638-2.537c.06-.158.218-.188.35-.084.041.033.11.03.175.047 0 .096.002.208.004.371.089-.061.156-.097.21-.148.145-.134.28-.31.507-.165.223.143.167.384.116.565a4.94 4.94 0 0 1-.506 1.189c-.15.252-.263.527-.393.793.096.027.22.055.382-.068.1-.076.302-.019.458-.02.168-.002.337.013.502-.007.163-.02.23.018.17.184-.147.407-.42.655-.861.715-.182.024-.358.09-.533.15-.038.013-.06.077-.084.112.211.044.409.062.588.13.11.042.276.163.272.24-.007.143-.095.372-.198.403a4.011 4.011 0 0 1-.992.16c-.265.012-.536-.044-.8-.09-.203-.036-.35-.315-.273-.569.057-.19.242-.262.438-.25.259.015.517.043.776.062.027.002.055-.018.16-.055-.218-.073-.364-.15-.517-.167-.204-.022-.279-.13-.307-.311-.03-.194-.067-.383.17-.482.051-.022.093-.067.147-.106l-.184-.308-.453.182-.084-.07c.06-.231.113-.464.178-.694a13.3 13.3 0 0 1 .222-.724c.114-.33.236-.658.36-.985zm23.377-.328c.175.017.361.048.516.126.42.213.828.451 1.237.686.09.051.181.118.244.199.108.138.04.291-.134.294-.238.003-.477-.027-.751-.045-.016.051-.047.143-.074.235-.011.038-.003.104-.025.114-.261.126-.266.367-.316.61-.054.258-.2.35-.51.448l-.059-.17-.191.044.12.096c-.051.035-.093.07-.14.094-.05.026-.106.04-.203.075l.316.261c-.041.09-.08.21-.147.312-.052.08-.128.173-.211.197-.187.054-.258.142-.142.377l-.16-.074-.915.456c-.088-.078-.196-.156-.28-.253-.189-.215-.103-.472.26-.634.285-.128.526-.382.88-.346.027.003.064-.09.118-.174-.129.01-.228.013-.326.025-.244.03-.498-.127-.511-.322-.022-.31.176-.556.464-.55.152.003.302.06.455.083.15.022.304.032.422.044l.427-.252a5.535 5.535 0 0 1-.015-.056c-.184.027-.367.058-.552.08a1.31 1.31 0 0 1-.305.013c-.17-.02-.311-.075-.32-.294-.003-.082-.073-.161-.112-.242l-.068.023-.047.258-.099.002c-.01-.166-.085-.367-.018-.49.128-.236.405-.161.623-.148.256.015.508.106.763.114.267.009.535-.043.812-.08-.279-.035-.474-.284-.797-.255-.27.025-.55-.017-.822-.052-.17-.022-.266-.299-.227-.551.035-.233.195-.243.376-.246.148-.002.299-.047.444-.032zM11.324 8.064c.08.02.232.05.38.096.628.194 1.26.375 1.88.592 1.069.373 2.123.789 3.195 1.15.997.337 2.01.627 3.015.937.052.016.11.021.155.049.752.46 1.615.631 2.424.944 1.78.687 3.554 1.392 5.34 2.065 1.11.418 2.236.789 3.354 1.185.411.145.833.284 1.11.653.067.089.08.218.117.33-.114.018-.246.084-.34.049-.741-.278-1.483-.556-2.209-.872-1.14-.497-2.32-.87-3.516-1.208-.602-.17-1.178-.436-1.759-.677-.803-.333-1.588-.712-2.402-1.018-1.56-.586-3.13-1.15-4.705-1.695a102.675 102.675 0 0 0-3.539-1.137c-.798-.244-1.61-.444-2.415-.668-.104-.029-.202-.078-.302-.12-.165-.072-.325-.164-.269-.38.052-.199.206-.285.487-.275zm59.888 6.137c.141-.272.528-.408.79-.259.369.21.73.437 1.073.688.071.051.092.255.052.355-.044.112-.06.309-.273.286-.135-.015-.271-.019-.444-.03 0 .05-.004.098.002.145.026.203-.071.287-.264.291-.09.002-.18.008-.268.025-.08.014-.155.046-.205.022-.125-.066-.247-.14-.376-.195-.124-.054-.268-.426-.155-.534.208-.198.033-.381.042-.569.003-.075-.007-.162.026-.225zm13.598-1.96c.12.009.25-.009.357.033.104.04.186.14.245.189-.017.162-.017.33-.056.487-.057.23-.127.46-.216.68-.17.423-.351.843-.54 1.259-.145.321-.468.43-.642.214a.402.402 0 0 1-.06-.325c.134-.406.297-.801.447-1.202.051-.138.078-.29.149-.416.101-.18.234-.342.383-.554l-.002.001-.008-.016-.007-.022c-.02-.109-.034-.218-.05-.328zm.92.237c.268-.1.614.147.647.413.313-.293.572-.332.819-.1.07-.061.133-.145.217-.182a.44.44 0 0 1 .286-.034c.05.016.107.15.091.215-.046.182-.128.355-.181.493-.01.17 0 .317-.032.454-.075.333-.17.661-.257.991-.014.056-.009.134-.044.165-.082.072-.18.158-.278.165-.056.004-.153-.124-.18-.209-.05-.168-.066-.348-.098-.539-.155.225-.252.474-.434.602-.233.165-.447-.003-.553-.172-.174.074-.315.15-.466.195-.16.047-.228-.082-.205-.2.069-.344.157-.686.259-1.023a.851.851 0 0 1 .217-.377c.163-.147.365-.25.541-.367l-.349-.49zm11.268-.145c.051.002.143.034.145.057.017.289.224.174.377.173.365 1.008-.17 1.714-.794 2.476l-.122-.192-.226-.357c-.068 0-.174.003-.28.003-.2-.002-.275-.099-.226-.297.044-.18.092-.362.138-.542l-.07-.043c-.212.268-.424.535-.635.804-.034.044-.049.105-.087.144-.083.084-.176.16-.264.239-.052-.103-.097-.209-.159-.304-.027-.042-.11-.097-.132-.084-.123.075-.226.184-.353.25-.112.057-.27.131-.366.093-.174-.068-.223-.254-.174-.442.03-.112.076-.22.133-.38-.18.222-.316.403-.467.57-.041.046-.14.086-.187.067-.048-.02-.099-.12-.09-.177.03-.19.059-.389.134-.564.15-.35.327-.689.497-1.03.23-.462.3-.489.672-.124.352-.236.729-.288.95.171l.23-.358c.171.07.452.035.22.373l.235.023-.086.503.04.024c.122-.209.235-.425.37-.626.141-.21.258-.467.577-.45zm4.232-.022c.052-.004.152.198.171.315.06.368-.007.698-.317.958-.077.065-.093.22-.11.338-.023.175-.06.321-.255.379-.056.017-.132.07-.143.119-.06.273-.263.27-.442.202-.21-.08-.18-.266-.097-.441.023-.048.028-.104.04-.157l-.031-.013c-.086.13-.176.257-.258.39-.102.162-.188.336-.301.49a.33.33 0 0 1-.22.108c-.04.004-.096-.083-.133-.137-.227-.328.05-.57.153-.838.083-.213.19-.417.276-.63.099-.246.185-.498.277-.747.077-.21.252-.211.48-.194l.07.649c.153-.22.273-.438.438-.612a.65.65 0 0 1 .402-.18zm-10.742.272c.045-.046.255.002.326.072.092.09.182.256.164.371-.04.254-.135.502-.23.743-.105.265-.23.522-.354.778-.156.322-.465.404-.748.191-.117-.088-.169-.057-.226.054-.079.15-.224.246-.362.15-.086-.06-.152-.256-.12-.358.159-.513.347-1.017.54-1.52.047-.123.013-.34.28-.318.001.113-.023.229.01.326s.123.175.187.262c.036-.063.067-.129.109-.187.135-.193.259-.4.424-.564zm-1.707-.222c.156.014.2.099.177.234-.028.169-.05.342-.104.503-.123.362-.27.715-.395 1.077-.068.198-.053.433-.273.554l-.174.093c-.391-.008-.493-.154-.4-.467.138-.464.272-.929.408-1.393.08-.273.532-.623.761-.601zm16.062-.343c.268-.24.262-.24.54.021.043.04.13.035.198.045.063.01.127.013.161.016.147.121-.229.406.18.4-.089.24-.146.487-.267.698-.172.302-.389.577-.588.863-.097.141-.184.293-.3.417-.087.091-.2.226-.306-.028-.036-.085-.24-.09-.354-.154-.246-.136-.388-.028-.506.184a.805.805 0 0 1-.167.205c-.06.054-.138.088-.209.131-.054-.092-.144-.18-.156-.279-.038-.303.199-.507.31-.757.185-.415.374-.828.568-1.239.054-.115.124-.224.198-.327.022-.03.103-.056.128-.04.252.163.41-.012.57-.156zm-5.723.418c.092-.022.237-.059.277-.015a.512.512 0 0 1 .126.334c-.02.463-.357.776-.58 1.142-.12.196-.255.384-.353.59-.089.187-.211.27-.363.243-.418 0-.578-.252-.426-.592.162-.36.321-.723.485-1.082.118-.258.295-.45.587-.516.086-.02.161-.084.247-.104zm4.076-.374c.072-.058.27-.036.356.025.073.053.118.233.086.326-.103.305-.237.601-.377.891-.147.303-.336.586-.469.894-.102.238-.331.277-.508.381-.153.09-.312-.072-.3-.257.006-.07-.006-.142-.01-.213l-.044-.009c-.062.113-.107.243-.192.335-.074.081-.193.121-.292.179-.047-.117-.142-.237-.132-.349.024-.267.093-.53.152-.794.074-.33.144-.66.24-.984.107-.364.119-.361.475-.256.054.016.104.045.15.065.033.281-.131.563.04.875.124-.213.212-.4.333-.563a3.02 3.02 0 0 1 .492-.546zm3.564-.17c.224-.022.52.29.52.587-.045.333-.135.708-.384 1.032-.07.092-.088.224-.15.326-.07.115-.146.242-.252.314-.07.047-.25.045-.29-.006-.077-.1-.15-.264-.121-.374.115-.43.273-.85.41-1.275.05-.154.076-.316.13-.469.02-.056.086-.13.137-.134zm14.8-.254c.12-.091.346-.008.406.157.077.214.125.438.195.655.028.09.092.168.12.258.065.222.12.446.176.67.015.06.033.12.034.18.002.149.007.3-.02.443-.005.032-.168.08-.205.052a.934.934 0 0 1-.265-.303c-.133-.265-.232-.547-.365-.812-.049-.097-.174-.154-.226-.25-.114-.21-.204-.433-.307-.658.165-.142.305-.276.457-.392zm2.539-.184c.184-.053.473.275.464.507-.006.156.018.312.029.468l.099-.006c.045-.162.079-.329.137-.486.056-.15.137-.29.206-.434l.328.093c.035.191.101.401.103.613.002.217-.058.436-.1.71.175-.267.332-.497.479-.734.12-.193.307-.258.514-.127.157.1.192.255.123.445a4.273 4.273 0 0 1-.71 1.238c-.206.253-.344.316-.527.203-.134-.083-.168-.383-.067-.594l.024-.046.006-.01-.443-.183c-.068.056-.164.196-.24.186-.15-.019-.36-.086-.415-.197a5.006 5.006 0 0 1-.381-1.065c-.08-.347.04-.485.37-.58zm-51.912.514c.153-.077.224.01.31.1.158.164.31.335.48.484.125.11.265.218.418.279.472.187.316.639-.03.844-.092.054-.156.152-.233.23l.036.051-.278.034.05-.24c-.137.026-.254.058-.374.067-.223.018-.456-.192-.48-.415-.004-.04-.019-.103-.045-.113-.233-.088-.206-.327-.133-.43.14-.197.098-.397.112-.596.009-.135.032-.227.167-.295zm50.363-.401h.077c.406.028.624.237.74.633.096.33.247.643.358.969.055.16.113.334.097.495-.011.11-.137.27-.234.29-.102.019-.282-.074-.339-.17-.36-.61-.725-1.22-.94-1.903-.061-.197.075-.331.318-.314zm-2.58-.162c.17-.004.598.3.67.462.181.412.352.83.642 1.183.04.05.043.132.054.2.01.057-.007.12.013.172.049.13-.08.401-.216.416a.178.178 0 0 1-.137-.06c-.24-.312-.472-.629-.707-.944-.014-.02-.025-.053-.043-.057-.444-.099-.422-.561-.634-.84-.155-.205.087-.525.359-.532zm-3.478.138c.15-.108.304-.041.475.034.365.16.619.447.83.745.135.19.297.28.463.406.142.108.238.291.321.457.062.123-.096.312-.242.313-.088.002-.176-.016-.25-.023l-.06.217c-.085-.024-.188-.025-.253-.075-.323-.249-.613-.542-1.03-.647a.634.634 0 0 1-.295-.206c-.05-.059-.055-.167-.057-.254-.002-.165.03-.332.016-.495-.016-.17-.079-.356.082-.472zm1.881.02c.144.01.31.087.416.188.175.17.426.264.515.534.03.091.183.145.284.21.413.265.511.671.517 1.117-.347.162-.49-.11-.686-.258-.084-.063-.16-.14-.25-.192-.135-.08-.153-.163-.06-.245-.488-.196-.941-.44-1.195-.898.047-.112.061-.222.123-.276.095-.084.226-.186.336-.18zm-109.38-.835c.158-.193.34-.235.49-.04.19.246.33.537.46.823.096.21.175.44.2.667.027.249.014.512-.038.756-.043.198-.171.37-.428.358-.256-.012-.448-.091-.53-.365-.142-.47-.381-.913-.358-1.472-.016-.232.018-.5.203-.727zm75.884 1.878l-.002.001.004.005-.002-.006zM7.496 7.293l.255.005c.409.033.824.096 1.214.216.523.161.703.974.381 1.463a7.042 7.042 0 0 1-1.9 1.921c-.342.236-.752.38-1.144.53-.262.1-.5-.054-.638-.34-.18-.372-.117-.767-.116-1.157 0-.11.016-.22.024-.329L5.54 9.6c.03-.452.03-.91.1-1.357.094-.585.497-.885 1.084-.898.343-.008.688-.073 1.027-.047zm110.629 23.134l.009-.01.002-.004-.002.003-.01.011zm10.55-6.965l.023-.201c.026-.206.055-.412.039-.614-.029-.356-.047-.368.281-.503.052-.021.097-.058.149-.09l.218.335.044-.019c-.002-.132-.005-.264-.004-.395.004-.31.269-.545.546-.46.072.022.11.159.18.269.027-.091.054-.191.086-.29.042-.13.058-.282.136-.384.15-.194.225-.19.617-.076l.108-.726c.033-.004.09-.003.142-.017.361-.09.409-.02.427-.453.007-.157.107-.31.146-.415.202.017.343.007.465.05.072.024.115.134.189.23.012-.044.043-.094.032-.131-.035-.118-.112-.228-.12-.345-.008-.108.019-.26.09-.321.074-.063.223-.064.335-.05.094.011.236.06.262.13.06.155.089.335.08.502-.01.183-.05.372-.124.539-.058.134-.24.1-.313-.031-.047-.085-.113-.158-.171-.236a8.44 8.44 0 0 1-.067.023c-.018.248-.033.496-.055.744-.017.185-.032.372-.07.554-.052.24-.206.24-.389.137l-.028-.014c-.03-.014-.072-.03-.149-.066-.028.292-.048.553-.08.813-.018.147-.18.21-.324.117-.114-.074-.21-.175-.368-.31-.007.288.001.529-.025.765-.012.106-.067.254-.147.294-.136.07-.305.063-.418-.094a.323.323 0 0 0-.187-.123c.001.182-.014.365.01.544.025.19-.079.303-.218.35-.071.024-.196-.064-.275-.128-.074-.059-.12-.153-.177-.233l-.06.049.012 1.206c-.131.007-.305.07-.403.01-.189-.117-.328-.308-.313-.56.014-.245-.003-.307-.131-.373v.001l-.044.187c-.042.25-.023.503.005.758.021.193.009.393-.015.586-.008.055-.119.144-.17.136-.11-.017-.244-.059-.31-.14-.25-.301-.477-.622-.713-.937-.015-.02-.034-.04-.038-.063-.037-.21-.05-.47-.311-.123-.011.014-.182-.042-.195-.089-.12-.427-.223-.86-.338-1.319-.336-.099-.5-.33-.523-.819-.012-.262-.007-.524-.01-.78-.27.144-.352.118-.53-.14-.22-.324-.239-.654-.066-1 .032-.067.05-.142.087-.206.124-.216.09-.385-.026-.622-.112-.23-.05-.55-.044-.829.003-.13.057-.26.096-.42-.065.026-.147.035-.185.08-.143.17-.282.12-.43.017-.164-.116-.127-.285-.085-.429.115-.39.253-.772.381-1.157-.373-.151-.457-.397-.317-.813.173-.513.475-.932.858-1.302.115-.111.204-.258.335-.343.177-.115.38.018.39.23.02.44-.211.775-.455 1.104-.067.09-.138.177-.203.308.354-.183.529.097.794.252l-.749 1.196c.206.022.359.032.51.057.148.024.225.233.163.365a3.508 3.508 0 0 0-.222.572c-.045.17-.047.351-.067.52.117.081.275.15.367.27.057.074.039.23.013.34-.056.237-.138.466-.205.686.145.012.264.015.38.033.312.05.43.27.295.545-.02.044-.064.08-.076.124-.043.165-.076.332-.127.556l.296-.175c.127.111.441.081.322.426-.052.152-.08.315-.096.476-.007.07.04.147.063.22l.06-.016-.132.169c.666-.14.573-.108.662.596l.215.013-.014-.154c.216.074.303.179.3.4-.004.217.066.435.103.654v-.004z"/>
</svg>
