<svg xmlns="http://www.w3.org/2000/svg" width="24" height="24" viewBox="0 0 24 24">
    <path fill="#FFF" fill-rule="evenodd" d="M16.583 1C20.127 1 23 3.873 23 7.417v9.166C23 20.127 20.127 23 16.583 23H7.417C3.873 23 1 20.127 1 16.583V7.417C1 3.873 3.873 1 7.417 1zm0 1.833H7.417c-2.532 0-4.584 2.052-4.584 4.584v9.166c0 2.532 2.052 4.584 4.584 4.584h9.166c2.532 0 4.584-2.052 4.584-4.584V7.417c0-2.532-2.052-4.584-4.584-4.584zM12 6.5c3.038 0 5.5 2.462 5.5 5.5s-2.462 5.5-5.5 5.5-5.5-2.462-5.5-5.5S8.962 6.5 12 6.5zm0 1.833c-2.025 0-3.667 1.642-3.667 3.667S9.975 15.667 12 15.667s3.667-1.642 3.667-3.667S14.025 8.333 12 8.333zm5.958-3.666c.76 0 1.375.615 1.375 1.375s-.615 1.375-1.375 1.375-1.375-.616-1.375-1.375c0-.76.616-1.375 1.375-1.375z"/>
</svg>
