<svg xmlns="http://www.w3.org/2000/svg" width="24" height="24" viewBox="0 0 24 24">
    <path fill="#FFF" fill-rule="evenodd" d="M18.155 9.338c.203-.547.462-1.102.258-1.703-.11-.324-.287-.626-.45-.93-.19-.357-.44-.43-.794-.238-.071.039-.16.13-.158.196 0 .067.097.138.16.198.15.142.331.257.452.42.276.37.2.795.118 1.209-.07.344-.154.685-.238 1.059.286.005.549.065.652-.21m2.316-4.67c-.051.051-.044.205-.009.29.066.159.217.292.253.454.16.714.328 1.43.422 2.153.11.84-.064 1.675-.184 2.507-.012.084.048.231.116.264.28.136.55-.067.533-.375-.005-.084.005-.169.014-.252.055-.522.147-1.043.158-1.566.01-.45-.076-.9-.11-1.352-.064-.84-.326-1.613-.782-2.361-.157.086-.308.138-.41.239m-.679 6.306c.06-.203.136-.401.177-.607.098-.492.236-.986.255-1.484.046-1.157-.29-2.238-.793-3.27-.164-.338-.533-.455-.757-.231-.084.084-.137.198-.158.23.18.226.384.39.462.6.205.549.472 1.113.5 1.68.046.957-.073 1.922-.126 2.95l.44.132m3.412-7.598c-.07-.171-.312-.316-.505-.374-.098-.03-.306.134-.381.26-.044.072.058.256.128.368.554.88.857 1.83.88 2.876.027 1.278-.034 2.545-.315 3.796-.017.076.094.181.146.273.147-.09.425.182.476-.172.138-.944.426-1.87.307-2.825.088-1.47-.19-2.864-.736-4.202M12.333 9.302c.455-.242.918-.48 1.373-.735.101-.057.242-.17.242-.256 0-.178-.102-.319-.321-.363-.38-.076-.754-.181-1.128-.283-.349-.095-.695-.2-1.05-.304l.884 1.94m1.047 3.187c.048-.059.078-.085.095-.119.388-.744.79-1.482 1.145-2.242.061-.13-.045-.377-.142-.527-.048-.074-.282-.109-.376-.058-.486.26-.953.553-1.423.832l.701 2.114m-12.282 4.97l.02.116c.184.097.364.2.55.289.607.286 1.215.565 1.822.85.215.1.316-.003.303-.202-.027-.417-.034-.844-.134-1.246-.182-.73-.294-.766-.994-.496-.02.007-.043.005-.062.013l-1.505.676m10.498 1.922l.01-.062c-.359-.19-.76-.326-1.068-.578-.74-.604-1.44-1.259-2.148-1.902-.225-.204-.45-.418-.629-.66-.316-.431-.616-.876-.887-1.336-.206-.351-.396-.722-.524-1.107-.19-.575-.323-1.169-.475-1.756-.121-.47-.268-.936-.344-1.413-.102-.646-.151-1.3-.215-1.951-.094-.955-.16-1.91.049-2.86.046-.213.074-.429.11-.643l-.08-.03c-.213.24-.446.467-.638.724-1.144 1.532-1.724 3.26-1.719 5.172.003.778.09 1.556.117 2.335.035.986.404 1.837 1.004 2.6.175.222.372.427.544.651.708.926 1.545 1.703 2.599 2.218.786.385 1.643.52 2.503.589.593.047 1.194.009 1.79.009m.321-9.892c-.324-.713-.625-1.416-.97-2.097-.068-.136-.295-.226-.466-.269-1.06-.263-2.125-.504-3.187-.76-.49-.117-.532-.23-.401-.736.05-.196.154-.288.324-.262.598.092 1.196.196 1.79.315.309.062.61.165.914.25l.07-.118c-.493-.432-.974-.877-1.483-1.288-.215-.174-.473-.341-.737-.401-.73-.167-1.244-.141-1.458.756-.264 1.109-.467 2.222-.357 3.37.039.406.032.816.067 1.222.018.207.075.412.127.614.243.965.461 1.937.747 2.889.158.527.426 1.02.651 1.527.387.87.959 1.626 1.635 2.267.67.636 1.454 1.155 2.205 1.7.22.16.494.316.754.336.441.034.82-.033 1.135-.516.288-.443.455-.851.45-1.357 0-.127.02-.253.028-.38.035-.561-.12-1.084-.308-1.673-.359.75-.685 1.43-1.009 2.111-.202.425-.406.542-.878.493-.311-.032-.453-.23-.341-.522.085-.223.212-.43.32-.645.445-.883.896-1.763 1.33-2.652.085-.174.186-.403.14-.568-.166-.593-.392-1.17-.597-1.752-.071-.204-.146-.407-.229-.638-.143.079-.263.139-.377.209-.592.364-1.177.74-1.775 1.093-.463.273-.971.48-1.404.79-.278.2-.483.115-.69-.008-.358-.212-.355-.77-.005-.985.6-.368 1.206-.725 1.814-1.078.71-.411 1.425-.812 2.171-1.237M0 17.178c.426-.185.81-.38 1.212-.52.613-.212 1.237-.39 1.86-.574.21-.062.156-.168.09-.308-.21-.446-.463-.88-.603-1.349-.384-1.276-.46-2.583-.23-3.9.106-.6.187-1.208.35-1.792.125-.448.342-.875.555-1.293.328-.645.633-1.313 1.05-1.899.337-.474.817-.85 1.248-1.254.312-.294.619-.607.979-.83.293-.181.65-.25 1.012-.07.277.14.578.234.869.346.626.24 1.035.738 1.446 1.23.31.37.598.755.9 1.131.037.046.092.092.147.106 1.016.263 2.022.579 3.053.761.873.155 1.606.585 2.372.96.116.057.184.212.251.293-.4.821-.789 1.609-1.17 2.4-.39.813-.778 1.629-1.16 2.447-.132.284-.245.579-.358.872-.024.064-.023.146-.01.215.13.763.332 1.52.383 2.288.046.702.172 1.455-.314 2.09-.215.281-.422.578-.68.816-.612.562-1.378.637-2.167.623-.241-.005-.488.077-.724.05-.679-.076-1.358-.166-2.03-.292-.648-.122-1.298-.278-1.862-.642-.544-.352-1.077-.724-1.592-1.117-.332-.254-.623-.562-.938-.85.066.276.143.557.198.843.12.621-.06 1.21-.23 1.796-.015.053-.198.117-.263.088-.44-.2-.871-.42-1.301-.64-.688-.353-1.285-.829-1.814-1.389C.353 17.627.2 17.42 0 17.18"/>
</svg>
